<?xml version="1.0" encoding="UTF-8"?>
<svg id="Layer_1" data-name="Layer 1" xmlns="http://www.w3.org/2000/svg" version="1.1" xmlns:serif="http://www.serif.com/" viewBox="0 0 32 32">
  <defs>
    <style>
      .cls-1, .cls-2 {
        fill: #000;
        stroke-width: 0px;
      }

      .cls-2 {
        fill-rule: evenodd;
      }
    </style>
  </defs>
  <g id="Icon">
    <circle class="cls-1" cx="11" cy="18" r="1"/>
    <circle class="cls-1" cx="17" cy="18" r="1"/>
    <path class="cls-2" d="M15,21c0,.6-.4,1-1,1s-1-.4-1-1-.4-1-1-1-1,.4-1,1c0,1.7,1.3,3,3,3s3-1.3,3-3-.4-1-1-1-1,.4-1,1Z"/>
    <path class="cls-2" d="M24,9c0-.6-.4-1-1-1H7c-.8,0-1.6.3-2.1.9-.6.6-.9,1.3-.9,2.1v18c0,.8.3,1.6.9,2.1.6.6,1.3.9,2.1.9h16c.6,0,1-.4,1-1V9ZM22,10H7c-.3,0-.5.1-.7.3s-.3.4-.3.7v18c0,.3,0,.5.3.7.2.2.4.3.7.3h15V10Z"/>
    <path class="cls-2" d="M28,11c0-.8-.3-1.6-.9-2.1-.6-.6-1.3-.9-2.1-.9h-2c-.6,0-1,.4-1,1v22c0,.6.4,1,1,1h2c.8,0,1.6-.3,2.1-.9.6-.6.9-1.3.9-2.1V11ZM24,10v20h1c.3,0,.5-.1.7-.3s.3-.4.3-.7V11c0-.3-.1-.5-.3-.7s-.4-.3-.7-.3h-1Z"/>
    <path class="cls-2" d="M24,9v-3.5c0-3-2.5-5.5-5.5-5.5h0c-1.1,0-2.2.3-3.1.9-.5.3-.6.9-.3,1.4s.9.6,1.4.3c.6-.4,1.2-.6,1.9-.6h0c1.9,0,3.5,1.6,3.5,3.5v3.5c0,.6.4,1,1,1s1-.4,1-1h.1Z"/>
    <path class="cls-2" d="M19,9v-3.5c0-3-2.5-5.5-5.5-5.5h0c-1.5,0-2.9.6-3.9,1.6-1,1-1.6,2.4-1.6,3.9v3.5c0,.6.4,1,1,1s1-.4,1-1v-3.5c0-.9.4-1.8,1-2.5s1.5-1,2.5-1h0c1.9,0,3.5,1.6,3.5,3.5v3.5c0,.6.4,1,1,1s1-.4,1-1Z"/>
  </g>
</svg>