<?xml version="1.0" encoding="UTF-8"?>
<svg id="Layer_2" data-name="Layer 2" xmlns="http://www.w3.org/2000/svg" xmlns:xlink="http://www.w3.org/1999/xlink" viewBox="0 0 767.9 88.82">
  <defs>
    <style>
      .cls-1 {
        fill: #052d5c;
      }

      .cls-1, .cls-2, .cls-3, .cls-4, .cls-5, .cls-6, .cls-7, .cls-8, .cls-9, .cls-10, .cls-11, .cls-12, .cls-13, .cls-14, .cls-15, .cls-16, .cls-17, .cls-18, .cls-19, .cls-20, .cls-21, .cls-22, .cls-23, .cls-24, .cls-25 {
        stroke-width: 0px;
      }

      .cls-2 {
        fill: #f95443;
      }

      .cls-3 {
        fill: #df4816;
      }

      .cls-4 {
        fill: url(#linear-gradient);
      }

      .cls-5 {
        fill: #000;
      }

      .cls-6 {
        fill: url(#linear-gradient-6);
      }

      .cls-7 {
        fill: #9db2c5;
      }

      .cls-8 {
        fill: #00577e;
      }

      .cls-9 {
        fill: #ece2b5;
      }

      .cls-10 {
        fill: #aa2f03;
      }

      .cls-11 {
        fill: url(#linear-gradient-5);
      }

      .cls-12 {
        fill: #fe955a;
      }

      .cls-13 {
        fill: #f76f1b;
      }

      .cls-14 {
        fill: #d81716;
      }

      .cls-15 {
        fill: url(#linear-gradient-2);
      }

      .cls-16 {
        fill: #cec49c;
      }

      .cls-17 {
        fill: #2e9ed2;
      }

      .cls-18 {
        fill: url(#linear-gradient-7);
      }

      .cls-19 {
        fill: url(#linear-gradient-3);
      }

      .cls-20 {
        fill: #0a81b5;
      }

      .cls-21 {
        fill: url(#linear-gradient-8);
      }

      .cls-22 {
        fill: #fca504;
      }

      .cls-23 {
        fill: url(#linear-gradient-4);
      }

      .cls-24 {
        fill: #fefefe;
      }

      .cls-25 {
        fill: #c2cdd5;
      }
    </style>
    <linearGradient id="linear-gradient" x1="82.28" y1="731.89" x2="80.34" y2="731.43" gradientTransform="translate(-14.45 722.96) scale(.98 -.98)" gradientUnits="userSpaceOnUse">
      <stop offset="0" stop-color="#d5e1ed"/>
      <stop offset="1" stop-color="#fff"/>
    </linearGradient>
    <linearGradient id="linear-gradient-2" x1="81.69" y1="730.64" x2="81.2" y2="731.2" gradientTransform="translate(-14.45 722.96) scale(.98 -.98)" gradientUnits="userSpaceOnUse">
      <stop offset="0" stop-color="#b1becd"/>
      <stop offset="1" stop-color="#d6e2ea"/>
    </linearGradient>
    <linearGradient id="linear-gradient-3" x1="27.63" y1="730.9" x2="26.47" y2="731.91" gradientTransform="translate(-14.45 722.96) scale(.98 -.98)" gradientUnits="userSpaceOnUse">
      <stop offset="0" stop-color="#dddbb2"/>
      <stop offset="1" stop-color="#fffee7"/>
    </linearGradient>
    <linearGradient id="linear-gradient-4" x1="64.92" y1="662.15" x2="65.86" y2="660.07" gradientTransform="translate(-14.45 722.96) scale(.98 -.98)" gradientUnits="userSpaceOnUse">
      <stop offset="0" stop-color="#d5d8db"/>
      <stop offset="1" stop-color="#fff"/>
    </linearGradient>
    <linearGradient id="linear-gradient-5" x1="59.08" y1="660.1" x2="59.76" y2="662.12" gradientTransform="translate(-14.45 722.96) scale(.98 -.98)" gradientUnits="userSpaceOnUse">
      <stop offset="0" stop-color="#959da1"/>
      <stop offset="1" stop-color="#c2cace"/>
    </linearGradient>
    <linearGradient id="linear-gradient-6" x1="80.72" y1="727.15" x2="75.85" y2="727.86" gradientTransform="translate(-14.45 722.96) scale(.98 -.98)" gradientUnits="userSpaceOnUse">
      <stop offset="0" stop-color="#a4bdce"/>
      <stop offset="1" stop-color="#d7dee2"/>
    </linearGradient>
    <linearGradient id="linear-gradient-7" x1="31.61" y1="657.42" x2="36.91" y2="666.66" gradientTransform="translate(-14.45 722.96) scale(.98 -.98)" gradientUnits="userSpaceOnUse">
      <stop offset="0" stop-color="#aab3b8"/>
      <stop offset="1" stop-color="#c3d8e4"/>
    </linearGradient>
    <linearGradient id="linear-gradient-8" x1="52.54" y1="708.24" x2="54.61" y2="702.05" gradientTransform="translate(-14.45 722.96) scale(.98 -.98)" gradientUnits="userSpaceOnUse">
      <stop offset="0" stop-color="#d3dde2"/>
      <stop offset="1" stop-color="#fff"/>
    </linearGradient>
  </defs>
  <g id="Layer_1-2" data-name="Layer 1">
    <g>
      <path class="cls-5" d="M85.93,41.51c-9.37,0-10.5.26-10.5,5.12v12.5c11.11-.17,14.15-3.3,14.15-11.02,0-1.04,0-2.26-.17-3.47h1.39v33.07h-48v-18.58c5.64,0,5.64-.26,5.64-5.12v-7.38c0-4.86,0-5.12-5.64-5.12v-18.49h43.14v18.49Z"/>
      <path class="cls-5" d="M119.44,21.28c0,5.38-4.51,7.38-13.28,7.38s-13.28-2-13.28-7.38,4.6-7.47,13.28-7.47,13.28,2.17,13.28,7.47ZM117.44,54.79c0,3.65.35,5.21,2.26,5.21v17.71h-26.82v-17.71c2.69,0,3.12-1.56,3.12-5.21v-1.56c0-3.99-.43-5.21-3.12-5.21v-17.62h24.57v24.39Z"/>
      <path class="cls-5" d="M120.82,37.17v-17.62h22.92l-.26,28.21h.87c.35-14.41,3.99-18.23,13.45-18.23,11.37,0,15.02,6.86,14.84,23.96.17,17.79-6.42,24.65-20.83,24.65-13.37,0-16.93-4.6-22.48-4.6-2.26,0-4.17,1.74-4.17,4.17h-1.3v-35.33c0-3.99-.52-5.21-3.04-5.21ZM151.38,53.66c0-6.6-.61-7.81-3.3-7.81-1.91,0-2.95,1.13-2.95,3.82v7.9c0,2.86.61,4.17,2.95,4.17,2.52,0,3.3-1.48,3.3-8.07Z"/>
      <path class="cls-5" d="M212.83,51.49c-11.98,0-13.8.95-13.8,4.34v.69c0,2.43,1.39,3.47,9.11,3.47v17.71h-33.51v-17.71c2.6,0,3.13-1.56,3.13-5.21v-1.56c0-3.99-.52-5.21-3.13-5.21v-17.62h22.66v23.52h.95c.95-20.92,3.99-24.31,14.58-24.31v21.88Z"/>
      <path class="cls-5" d="M236.27,51.06h-21.79v-20.66h19.97v19.53h.95c.17-16.84,4.86-20.4,14.24-20.4s13.19,4.86,13.19,17.36v10.76c0,2.34.26,2.69,1.04,2.69,1.04,0,1.56-.35,1.39-7.12h1.22c.17,3.21.26,6.08.26,8.51,0,11.98-1.74,16.84-11.81,16.84-10.59,0-12.59-6.51-12.59-19.97h-1.04c-.17,14.58-4.08,19.97-14.84,19.97s-13.71-4.43-13.71-12.15c0-8.85,5.12-12.85,16.23-12.85s11.63-.43,11.63-3.04v-1.13c0-1.56-.43-2.43-1.74-2.43-1.65,0-2.43,1.56-2.6,4.08ZM240.61,56.35v-3.12c-2.17,1.74-5.9,2.17-5.9,5.03,0,1.22.78,2,2.34,2,2,0,3.56-.43,3.56-3.91Z"/>
      <path class="cls-5" d="M295.29,21.28c0,5.38-4.51,7.38-13.28,7.38s-13.28-2-13.28-7.38,4.6-7.47,13.28-7.47,13.28,2.17,13.28,7.47ZM293.29,54.79c0,3.65.35,5.21,2.26,5.21v17.71h-26.82v-17.71c2.69,0,3.12-1.56,3.12-5.21v-1.56c0-3.99-.43-5.21-3.12-5.21v-17.62h24.57v24.39Z"/>
      <path class="cls-5" d="M335.74,51.49c-11.98,0-13.8.95-13.8,4.34v.69c0,2.43,1.39,3.47,9.11,3.47v17.71h-33.51v-17.71c2.6,0,3.12-1.56,3.12-5.21v-1.56c0-3.99-.52-5.21-3.12-5.21v-17.62h22.66v23.52h.95c.95-20.92,3.99-24.31,14.58-24.31v21.88Z"/>
      <path class="cls-5" d="M364.29,21.28c0,5.38-4.51,7.38-13.28,7.38s-13.28-2-13.28-7.38,4.6-7.47,13.28-7.47,13.28,2.17,13.28,7.47ZM362.29,54.79c0,3.65.35,5.21,2.26,5.21v17.71h-26.82v-17.71c2.69,0,3.12-1.56,3.12-5.21v-1.56c0-3.99-.43-5.21-3.12-5.21v-17.62h24.57v24.39Z"/>
      <path class="cls-5" d="M392.67,78.58c-15.36,0-26.82-4.77-26.82-24.91,0-17.27,7.12-24.13,25.43-24.13s23.18,8.25,23.18,19.01c0,1.74,0,3.47-.09,5.38-6.77.17-16.84,0-26.3,0,.87,4.77,4.51,6.08,12.41,6.08,9.38,0,11.89-1.39,11.72-4.34h2.17c0,15.71-5.03,22.92-21.7,22.92ZM387.9,52.71h6.86c-.09-6.68-1.3-7.99-3.39-7.99-2.26,0-3.56,1.74-3.56,6.51,0,.52,0,1.04.09,1.48Z"/>
      <path class="cls-5" d="M459.16,78.58c-15.36,0-26.82-4.77-26.82-24.91,0-17.27,7.12-24.13,25.43-24.13s23.18,8.25,23.18,19.01c0,1.74,0,3.47-.09,5.38-6.77.17-16.84,0-26.3,0,.87,4.77,4.51,6.08,12.41,6.08,9.38,0,11.89-1.39,11.72-4.34h2.17c0,15.71-5.03,22.92-21.7,22.92ZM454.38,52.71h6.86c-.09-6.68-1.3-7.99-3.39-7.99-2.26,0-3.56,1.74-3.56,6.51,0,.52,0,1.04.09,1.48Z"/>
      <path class="cls-5" d="M509.33,77.71h-26.74v-17.71c2.6,0,3.12-1.56,3.12-5.21v-1.39c0-4.08-.52-5.38-3.12-5.38v-17.62h22.66v18.84h.95c.09-17.1,4.34-19.7,14.5-19.7s13.72,4.86,13.72,16.32v8.94c0,3.65.35,5.21,2.26,5.21v17.71h-25.87v-17.71c1.91,0,2.26-1.56,2.26-5.21v-2.87c0-3.56-.78-4.43-3.04-4.43-1.82,0-3.04.95-3.04,3.82v3.47c0,3.65.43,5.21,2.34,5.21v17.71Z"/>
      <path class="cls-5" d="M579.72,54.79c0,3.65.44,5.21,2.78,5.21v17.71h-27.26v-17.71c2.69,0,3.12-1.56,3.12-5.21v-12.41c0-3.99-.43-5.21-3.04-5.21v-17.62h24.39v35.24Z"/>
      <path class="cls-5" d="M610.97,21.28c0,5.38-4.51,7.38-13.28,7.38s-13.28-2-13.28-7.38,4.6-7.47,13.28-7.47,13.28,2.17,13.28,7.47ZM608.97,54.79c0,3.65.35,5.21,2.26,5.21v17.71h-26.82v-17.71c2.69,0,3.12-1.56,3.12-5.21v-1.56c0-3.99-.43-5.21-3.12-5.21v-17.62h24.57v24.39Z"/>
      <path class="cls-5" d="M660.61,88.82h-37.5c-5.73,0-10.76-2.26-10.76-11.81,0-6.42,4.43-11.2,11.72-11.11,3.91.09,6.51.09,10.5.17v-.95c-15.54,0-21.53-4.69-21.53-16.93,0-13.54,6.51-18.58,24.48-18.58h2.52c2.43,0,4.17-2.26,3.47-10.07h18.75c1.22,8.68-3.47,11.2-9.64,11.2-3.3,0-6.68-.26-11.72-.26v.78c17.01.61,21.09,6.25,21.09,16.93.17,13.63-6.51,18.66-24.48,18.66-8.59,0-9.72.61-9.72,1.82,0,.78.61,1.13,1.82,1.13h30.99v19.01ZM637.52,42.55c-2.34,0-3.12.61-3.12,5.82,0,5.82.78,6.68,3.12,6.68s3.12-.87,3.12-6.68c0-5.21-.78-5.82-3.12-5.82Z"/>
      <path class="cls-5" d="M690.82,77.71h-26.74v-17.71c2.6,0,3.12-1.56,3.12-5.21v-1.39c0-4.08-.52-5.38-3.12-5.38v-17.62h22.66v18.84h.95c.09-17.1,4.34-19.7,14.5-19.7s13.71,4.86,13.71,16.32v8.94c0,3.65.35,5.21,2.26,5.21v17.71h-25.87v-17.71c1.91,0,2.26-1.56,2.26-5.21v-2.87c0-3.56-.78-4.43-3.04-4.43-1.82,0-3.04.95-3.04,3.82v3.47c0,3.65.43,5.21,2.34,5.21v17.71Z"/>
      <path class="cls-5" d="M746.11,78.58c-15.36,0-26.82-4.77-26.82-24.91,0-17.27,7.12-24.13,25.43-24.13s23.18,8.25,23.18,19.01c0,1.74,0,3.47-.09,5.38-6.77.17-16.84,0-26.3,0,.87,4.77,4.51,6.08,12.41,6.08,9.37,0,11.89-1.39,11.72-4.34h2.17c0,15.71-5.04,22.92-21.7,22.92ZM741.33,52.71h6.86c-.09-6.68-1.3-7.99-3.39-7.99-2.26,0-3.56,1.74-3.56,6.51,0,.52,0,1.04.09,1.48Z"/>
    </g>
    <g>
      <path class="cls-5" d="M41.4.01c1.22-.06,2.56.15,3.66.69.64.31,1.19.71,1.74,1.15-.3.05-.62.04-.92.08-.69.08-1.48.23-2.12.49.78.26,1.51.57,2.23.96.22.11.5.23.66.42.22.24.39.74.49,1.05.02.05.12.44.14.45.02.01.27,0,.31,0,.34,0,.77,0,1.07.2.12.08.16.19.2.32.17.54.25,1.13.35,1.69l.5,2.88,1.38,7.84c.25,1.46.43,2.95.76,4.39.49-.34.92-.76,1.35-1.17,1.46-1.4,2.66-3.04,3.7-4.77.1-.16.89-1.57.88-1.63,0-.04-.06-.05-.09-.07-.12-.1-.24-.2-.33-.32-.08-.1-.13-.22-.15-.34-.12-.56.15-1.1.45-1.56-.22-.3-.42-.6-.53-.95-.12-.42-.03-1.13-.37-1.43-.2-.18-.49-.24-.74-.32-.4-.13-.91-.37-1.15-.72-.19-.28-.25-.65-.18-.98.09-.38.4-.68.73-.86.83-.46,1.67-.34,2.54-.1l.06-2.36c.07-.68.25-1.52.82-1.96.36-.28.86-.28,1.26-.09.05.02.47.27.47.27.06-.02.17-.13.23-.16.3-.2.61-.25.97-.2.56.08.98.53,1.3.96.11-.06.24-.11.37-.13.98-.14,1.55.61,1.8,1.46.03.11.06.41.11.49.06.09.52.24.64.34,1.08.9.24,3.02-.32,4.01-.13.22-.27.42-.41.63-.01.02-.12.16-.12.18-.02.18.12.53.14.73.1,1.09-.65,2.17-1.53,2.73-.09.06-.68.33-.71.38-.03.05-.02.23-.02.3,0,.42-.11.82-.4,1.14-.28.31-.61.4-1.02.42h-.06c-.14.12-.22.44-.29.63l-.55,1.19c-.68,1.38-1.43,2.76-2.3,4.03-1.03,1.5-2.23,2.92-3.58,4.13-.46.42-.99.79-1.5,1.15-.11.07-.56.33-.61.4,0,0,.02.1.02.11l1.01,6.04,2.61,15.87.63,3.86.17,1.09c.03.21.08.43.01.64l-.02.05c-.04.1-.07.18-.14.26-.25.31-.62.53-.92.8-.31.28-.6.61-.9.91-.14.14-.29.33-.48.4-.26.1-.63.12-.9.16l-2.61.32-6.02.72c-.31,2.85-1.03,5.59-2.33,8.14.42.26.75.49.96.96.23.51.13.91-.06,1.39.24-.01.52-.05.75.01l.06.02c.17.05.31.1.46.18.05.03.17.11.22.12.05.01.2-.03.26-.03.44-.05.85-.05,1.25.18.22.13.34.29.47.5.02.03.1.19.12.2.05.03.52-.02.61-.02.71.01,1.35.24,1.98.56,1.67.85,2.79,2.21,3.36,3.98.04.04.08.07.13.09.11.05.19.09.26.19.22.33.34.98.26,1.38-.1.49-.41.84-.82,1.1-.6.4-1.31.67-1.99.88-2.48.78-4.88.68-7.4.16-2.08-.43-4.23-1.01-6.06-2.12-.48-.29-1.04-.67-1.34-1.16-.23-.37-.22-.72-.18-1.14.02-.25.08-.42.24-.62.04-.05.16-.15.19-.21.03-.06.01-.27.02-.34l.09-1.06c.08-.92.24-1.84.48-2.73.05-.2.02-.34,0-.54-.07-.47.07-.95.36-1.32.51-.64,1.28-.97,2.07-1.08.69-2.34,1.1-4.69,1.35-7.11l-9.99,1.17-3.75.46c-.4.68-.69,1.42-.96,2.16-.49,1.33-.84,2.68-1.18,4.06.43.23.77.48,1,.92.26.48.27,1.01.1,1.53l-.02.05c.26.84.45,1.71.57,2.58l.09.85c0,.09,0,.26.03.34.05.15.29.33.37.5.14.31.12.78.02,1.1-.42,1.24-2.73,2.72-3.85,3.29-3.1,1.58-6.85,2.24-10.22,1.13-.8-.26-1.89-.72-2.27-1.53-.24-.51-.22-1.22.14-1.68.12-.15.32-.3.38-.49.18-.59.37-1.2.69-1.74.61-1.06,1.56-1.92,2.76-2.23.44-.11.65-.45.97-.74.86-.77,1.71-1.24,2.86-1.42l-.03-.29c-.05-.6.03-1.13.44-1.6.55-.63,1.44-.87,2.24-.93l1.01-4.27c-.23.05-.55.28-.79.39-.63.3-1.26.57-1.94.73-.92.22-2.04.23-2.87-.29-.68-.43-1.06-1.15-1.31-1.88-.21-.61-.3-1.26-.43-1.89l-.73-3.79-2.29-11.88-1.11-5.97-1.16,1.46c-.16.23-1.29,2.05-1.21,2.2.02.04.15.14.19.18.3.3.55.66.62,1.08.09.6-.14,1.06-.47,1.53.23.52.41,1,.53,1.56.06.27.07.58.17.84.17.47,1.12.21,1.47.43.15.1.28.29.32.47.12.46.01,1.08-.25,1.47-.29.43-.75.69-1.26.78-.86.15-1.62-.15-2.31-.63l-1.33,1.51.28.33c.23.3.37.77.31,1.15-.07.4-.34.77-.67,1-.34.24-.79.28-1.19.18-.42-.1-.67-.37-1.03-.56-.34-.17-.71-.28-1.05-.46-.29-.16-.48-.39-.73-.59-.24-.19-.53-.33-.78-.51-.31-.22-.58-.54-.78-.86-.55-.87-.68-1.9-.46-2.89.36-1.61,1.82-3.18,3.19-4.04-.16-.6-.23-1.21.06-1.79.3-.58.88-.89,1.47-1.1.47-2.51,1.97-5.05,3.62-6.98l1.06-1.15.5-.49s.11-.1.11-.11c.01-.04-.08-.35-.1-.4l-.33-1.48-1.74-8.43-.81-3.84c-.14-.67-.32-1.35-.41-2.03-.04-.3-.09-.57.05-.85.01-.03.03-.05.04-.08,0-.01-.05-.15-.06-.16l-.36-.95c-.42-1.06-.91-2.35-.98-3.5-.1-1.75.66-3.09,2.35-3.66.22-.07.43-.12.66-.16.08-.01.29-.02.36-.06.03-.02.11-.16.13-.19l.39-.55,1.71-2.04c1.02-1.14,2.11-2.22,3.29-3.2.15-.13.41-.39.6-.45.08-.03.24,0,.32,0l1.07.08,5.43.54,9.64.95,2.6.26c.31.03.79.15,1.09.11.17-.03.52-.37.68-.49.21-.16.44-.31.67-.44,1.54-.89,3.25-1.32,5.02-1.42Z"/>
      <path class="cls-16" d="M9.33,12.15c.07.04.13.07.2.12l-.87.96c-.08-.08-.1-.12-.12-.24.21-.34.55-.5.77-.81l.02-.03Z"/>
      <path class="cls-24" d="M38.62,68.16c.18-.1.57-.33.78-.3-.11.25-.2.52-.35.75l-.11.02c-.09-.1-.19-.2-.26-.32l-.06-.15Z"/>
      <path class="cls-25" d="M38.26,68.42l.36-.26.06.15c-.03.2-.02.38.1.56.07.1.17.18.26.26l-.12.09s-.13-.07-.16-.09l-.18-.11c-.26-.2-.29-.29-.33-.6Z"/>
      <path class="cls-25" d="M57.52,8.1c.54.09,1.06.21,1.4.69.17.24.24.54.29.82l-.07.02c-.11-.22-.29-.44-.44-.63-.18-.24-.46-.45-.71-.6-.18-.1-.32-.13-.47-.29Z"/>
      <path class="cls-25" d="M1.29,49.98l.04.1c.34.03.43-.49.63-.62.04-.03.18-.04.23-.05-.12.29-.27.6-.33.92-.05.3-.01.62,0,.92-.3-.3-.59-.74-.6-1.16,0-.05,0-.06.01-.1Z"/>
      <path class="cls-24" d="M19.49,69.33c.05-.21.12-.37.25-.54.29-.36.98-.6,1.43-.66l.05.09-.05.09-.17.08c-.27.14-.4.35-.47.63v.05s-.28-.05-.28-.05c-.13-.03-.25-.06-.37,0l-.4.31Z"/>
      <path class="cls-25" d="M2.28,50.88l.33.15c.68.27.66-.87,1.02-1.19.04-.04.14-.07.19-.09-.45,1-.57,1.63-.28,2.71-.47-.26-1.05-.77-1.2-1.31l-.06-.27Z"/>
      <path class="cls-20" d="M43.44,70.56c.31-.03.63.01.93.07-.4.26-.83.4-1.26.6-.36.16-.7.37-1.05.57-.17.1-.47.31-.65.3-.02-.28.11-.44.28-.65.41-.51,1.11-.81,1.75-.88Z"/>
      <path class="cls-12" d="M7.78,16.65c-.05-.25-.1-.48-.19-.72l-.02-.06c.41-.64.95-1.21,1.45-1.78l.13.84c-.04.19-.18.29-.29.44-.34.44-.67.89-1.08,1.27Z"/>
      <path class="cls-20" d="M19.27,70.74c.51-.04,1.01.02,1.44.32.35.24.35.45.42.83l-.96-.35c-.75-.23-1.53-.35-2.3-.45.44-.22.93-.31,1.41-.35Z"/>
      <path class="cls-13" d="M45.93,4.51h.14c.14.24.22.52.31.79l-1.9.1c-.09,0-.3.03-.38,0-.05-.02-.12-.09-.17-.12-.21-.17-.41-.32-.65-.44l-.05-.03c.93-.07,1.8-.05,2.7-.3Z"/>
      <path class="cls-13" d="M16.26,61.32c.28,0,.53.02.8.08l.24.05.35.43c.11.29.24.56.38.83.09.16.25.39.26.57l-.92-.21c-.6-.54-.86-.99-1.11-1.75Z"/>
      <path class="cls-20" d="M45.52,70.78c.2-.02.42,0,.6.09.11.05.23.15.27.26-.24.12-.54.16-.8.25-.65.23-1.34.64-1.88,1.06l-.06.04-.52.38-.08-.03-.02-.07c-.05-.26.16-.55.31-.75.57-.78,1.24-1.09,2.17-1.24Z"/>
      <path class="cls-12" d="M12.51,10.3l-.03-.15c.14-.36,1.47-1.04,1.85-1.24l.19.92-.03.03c-.37.36-.68.82-1.01,1.22-.32-.16-.52-.31-.77-.56l-.2-.22Z"/>
      <path class="cls-20" d="M17.44,71.7c1.11-.05,2.35.12,3.37.58.33.15.91.42,1.03.79.04.11.04.13,0,.23-.12.02-.21-.02-.31-.07l-.05-.02c-1.52-.68-3.08-1.15-4.75-1.23.25-.13.45-.22.72-.28Z"/>
      <path class="cls-24" d="M63.12,8.83l-.45-.21c.44-.88.81-1.88.79-2.88,0-.32-.08-.62-.12-.94.05-.09.12-.16.22-.2.16-.06.29-.04.44.02.13.76.15,1.72-.09,2.46-.19.61-.52,1.17-.79,1.74Z"/>
      <path class="cls-4" d="M64.26,9.74l-.12-.18c.19-.38.4-.73.56-1.13l.36-1.06c.06-.22.09-.63.26-.79.12.04.2.07.28.18.24.35.11.95.03,1.34-.19.78-.5,1.59-1.03,2.2-.07-.14-.22-.5-.33-.57Z"/>
      <path class="cls-15" d="M64.26,9.74c.17-.16.27-.35.4-.53.1-.14.22-.26.29-.42.07-.15.08-.33.11-.49l-.06-.07c.04-.1.03-.06.05-.16v-.08s.04.02.04.02v.2c.04.09.02.14.02.24.09-.09.2-.23.32-.27.05-.02.1-.03.15-.04l.06-.03c-.19.78-.5,1.59-1.03,2.2-.07-.14-.22-.5-.33-.57Z"/>
      <path class="cls-24" d="M60.71,9.41c-.33-.07-.6-.16-.95-.16h-.08s-.18-.59-.18-.59c.79-.14,1.36-.04,2.13.15.44.11.81.21,1.2.46.1.32.28.62.5.88.09.1.19.21.24.33l-.02.05-.07-.05c-.22-.21-.44-.35-.7-.49-.45-.25-.94-.39-1.44-.51-.21-.05-.41-.12-.62-.06Z"/>
      <path class="cls-16" d="M15.7,6.51c.08.12.16.27.28.36.25.2.53.17.6.53l-.21.54c-.97.08-2,.18-2.92.48l.02-.05c.07-.15.23-.29.34-.41.4-.4.88-.75,1.34-1.08.19-.13.34-.28.56-.37Z"/>
      <path class="cls-7" d="M41.58,70.52c-.23.08-.49.13-.74.15-.78.08-1.64-.1-2.25-.6-.27-.22-.56-.54-.59-.9-.03-.33.05-.5.26-.75.04.31.07.4.33.6l.18.11s.14.09.16.09c.52.42,1.06.5,1.63.77.38.18.59.44,1.02.53Z"/>
      <path class="cls-24" d="M59.46,15.27c-.51-.18-1.12-.44-1.47-.87-.15-.18-.21-.41-.17-.64v-.05c.04-.2.13-.36.23-.54.41.17,1.01.65,1.46.55l.08-.02.61.02c-.16.44-.35,1.24-.71,1.53l-.03.03Z"/>
      <path class="cls-25" d="M64,4.62c.26.11.4.35.51.6.4.94.19,2.07-.2,2.97l-.51,1.09-.67-.45c.27-.58.59-1.14.79-1.74.24-.74.22-1.7.09-2.46Z"/>
      <path class="cls-25" d="M61.64,3.62c.5.18.8.54,1.03,1.02.49,1.03.26,2.14-.11,3.17-.07.19-.18.53-.32.67-.28-.08-.55-.15-.84-.18l-.27-.03.13-.12.18-.02c.21-.04.35-.11.46-.31.08-.15.11-.33.16-.49.25-.86.3-1.75.04-2.62-.06-.2-.11-.43-.2-.61-.08-.15-.17-.26-.23-.43l-.02-.05Z"/>
      <path class="cls-7" d="M19.49,69.33l.4-.31c.12-.07.24-.03.37,0l.26.05c.06.27.16.42.4.56.57.36,1.43.39,2.08.36l-.34.06-.34.63c-.06.18-.14.32-.1.51-.07.05-.58.05-.68.06-.07-.19-.15-.39-.28-.55-.4-.48-1.07-.59-1.66-.63l-.11-.73Z"/>
      <path class="cls-25" d="M22.31,70.67v-.06c-.05-.15-.08-.45,0-.57h.34s-.34.63-.34.63Z"/>
      <path class="cls-25" d="M60.13,4c.82,1.09.6,2.8.43,4.06l-.03.21c-.33.02-.65.05-.95.2-.09-.51.18-1.16.26-1.67.06-.38.13-.78.16-1.17.04-.55.03-1.08.13-1.63Z"/>
      <path class="cls-17" d="M9.57,14.59c-.07-.27-.09-.57-.12-.85.11-.24.31-.44.49-.64l.78-.87,1.45-1.69.26,1.13c-.33.17-.61.48-.86.75l-1.33,1.48c-.17.19-.43.62-.67.69Z"/>
      <path class="cls-24" d="M39.05,69.12c.81.41,1.7.56,2.58.26.3-.1.61-.26.76-.56l-.04-.04-.05.02c-.15.05-.32.05-.47.1l.52-.85c.33.18.65.37.77.75.07.23-.02.5-.13.7-.3.55-.85.78-1.4,1.02-.43-.09-.65-.35-1.02-.53-.57-.28-1.12-.35-1.63-.77l.12-.09Z"/>
      <path class="cls-24" d="M23,69.98c.66-.09,1.41-.24,1.84-.82.06-.08.09-.14.1-.23l-.06-.06c-.17.05-.32.15-.47.24l.23-.68c.33.1.6.26.78.58.06.11.1.24.13.36-.21.64-.59.97-1.18,1.27-.66.34-1.4.47-2.14.53-.04-.19.04-.33.1-.51l.34-.63.34-.06Z"/>
      <path class="cls-13" d="M6.85,10.89h0s1.04,3.21,1.04,3.21c-.03.15-.13.23-.24.34-.05-.04-.08-.07-.11-.13-.19-.4-.33-.85-.48-1.26-.38-1.05-.96-2.54-.55-3.65.28-.76.93-1.13,1.63-1.43l-.29.85v.05c-.04.17-.06.63-.18.74-.4.35-.71.77-.82,1.29Z"/>
      <path class="cls-3" d="M6.85,10.89c-.05-.05-.14-.13-.16-.19-.07-.19-.02-.58.06-.76.13-.29.44-.86.75-.97l.07-.02c.1-.04.16-.07.28-.09-.03.17-.04.63-.17.74-.4.35-.71.77-.82,1.29Z"/>
      <path class="cls-19" d="M8.25,12.36l-.16-.45c.74-.87,1.63-1.62,2.48-2.38l3.65-3.17,1.51-1.28c-.04.32-.14.61-.22.92h-.11s.02-.13.02-.13l-.07-.04c-.1.08-.13.11-.2.22l-.08.11-.05.07c-.06.07-.11.1-.19.16l-6.16,5.63c-.14.12-.28.25-.43.35Z"/>
      <path class="cls-24" d="M61.12,8.26h-.12c-.09-.08-.03-.16,0-.27.28-1.27.41-2.39-.04-3.63.04-.2.09-.41.23-.57.15-.17.25-.16.46-.16l.02.05c.06.17.15.28.23.43.1.18.14.42.2.61.26.87.21,1.76-.04,2.62-.05.16-.07.34-.16.49-.11.19-.25.26-.46.31l-.18.02-.13.12Z"/>
      <path class="cls-23" d="M45.63,77.78c2.56.35,5.16-.03,7.31-1.54l.06.02c.1.21.07.46.07.68-.24.56-.84.8-1.38,1.02-.29.12-.62.26-.93.31l-.03-.06-.11.02c-.07.07-.09.04-.17.04-.07.07-.09.04-.17.04l-.04.04h-.09c-.09.06-.11.04-.22.04l-.04.04c-.09,0-.1,0-.19-.04v-.14c.17-.01.32-.04.48-.08l-.06-.05c-.42.06-.81.11-1.24.1l-.96-.07-1.87-.06c-.13-.04-.26-.08-.4-.1-.04-.06-.07-.11-.11-.17l.1-.06Z"/>
      <path class="cls-25" d="M50.11,78.13h0c.47-.11.95-.22,1.39-.41.24-.1.5-.22.72-.36.17-.11.41-.32.59-.4.06-.02.18-.02.24-.03-.24.56-.84.8-1.38,1.02-.29.12-.62.26-.93.31l-.03-.06-.11.02c-.07.07-.09.04-.17.04-.07.07-.09.04-.17.04l-.04.04h-.09c-.09.06-.11.04-.22.04l-.04.04c-.09,0-.1,0-.19-.04v-.14c.17-.01.32-.04.48-.08l-.06-.05Z"/>
      <path class="cls-24" d="M59.58,8.47s-.07.06-.11.08c-.2-.26-.43-.47-.68-.69l-.04-1.76c.02-.64.06-1.92.59-2.37.1-.08.21-.1.33-.08.2.03.34.21.46.35-.1.55-.09,1.07-.13,1.63-.03.39-.1.79-.16,1.17-.08.51-.34,1.16-.26,1.67Z"/>
      <path class="cls-25" d="M60.71,9.41c.21-.06.41,0,.62.06.5.12.99.27,1.44.51.27.15.48.29.7.49l.07.05.02-.05c.15.35.11.91,0,1.27-.2.71-.64,1.26-1.28,1.62-.27.15-.6.33-.9.41l-.04-.04.09-.03-.02-.08c.06-.11.07-.16.19-.22l.08-.07c.09-.08.2-.13.24-.25l.05-.03c.08-.06.12-.13.16-.22l-.02-.06c-.1.08-.17.16-.24.27h-.11c-.13.12-.16.18-.35.2.23-.19.46-.44.61-.7.29-.53.32-1.1.12-1.67-.24-.71-.78-1.14-1.43-1.47Z"/>
      <path class="cls-2" d="M25.43,61.59l.75-.1c-.79,1.67-1.38,3.47-1.8,5.27-.2.85-.32,1.73-.55,2.58l-.71.2c.07-.56.25-1.15.38-1.71.48-2.15,1.04-4.22,1.93-6.24Z"/>
      <path class="cls-9" d="M8.25,12.36c.16-.11.29-.23.43-.35l6.16-5.63c.07-.05.13-.08.19-.16l.05-.07.08-.11c.07-.1.1-.14.2-.22l.07.04-.02.13h.11c.09.16.11.34.18.51-.21.09-.37.24-.56.37-.46.33-.93.68-1.34,1.08-.12.11-.28.26-.34.41l-.02.05c-.35.19-.69.39-1,.64-1.12.9-1.95,2.15-2.91,3.21-.06-.05-.13-.08-.2-.12h-.04c-.35.11-.65.33-.92.56l-.13-.35Z"/>
      <path class="cls-3" d="M52.1,24.23c-.02-.13-.17-.78-.13-.85,0-.02.17-.13.18-.14l.69-.52c.63-.51,1.22-1.09,1.76-1.69,1.13-1.25,2.11-2.65,2.95-4.11.27-.47.46-1.01.74-1.45l.12.07c0,.36-.18.73-.31,1.06-.88,2.24-2.33,4.28-3.99,6.01-.62.64-1.25,1.16-2.01,1.62Z"/>
      <path class="cls-24" d="M4.68,41.95h.1c0,.17.02.33,0,.5,0,.14-.06.35,0,.48l.04.07c.06.1.1.18.18.27.39.43.93.61,1.5.63.43.02,1.21,0,1.52-.35.09-.1.14-.44.18-.57.03-.12.03-.21.12-.29.21.18.34.52.39.79.07.36-.05.58-.24.87-.14.14-.31.25-.48.35-.72.41-1.63.51-2.42.29-.63-.17-1.23-.49-1.55-1.09-.18-.35-.22-.78-.1-1.15.13-.39.4-.61.74-.79Z"/>
      <path class="cls-2" d="M43.35,59.52l.9-.13c-.17,1.2-.36,2.43-.67,3.61-.28,1.1-.66,2.16-1.09,3.22-.27.67-.54,1.34-.9,1.97-.1.18-.31.65-.47.77-.06.04-.18.04-.25.05.27-1.02.76-2.03,1.09-3.04.27-.82.46-1.65.65-2.49.31-1.31.58-2.61.73-3.95Z"/>
      <path class="cls-10" d="M17.64,61.87l.06.02c.4.15.72.12,1.11-.05,1.04-.48,2-1.31,2.96-1.94.17.23.33.46.54.65.32.29.72.48,1.08.72-1.2.75-2.52,1.57-3.89,1.94-.34.09-.74.2-1.09.11l-.12-.04c-.01-.18-.18-.41-.26-.57-.14-.27-.27-.54-.38-.83Z"/>
      <path class="cls-14" d="M23.11,69.53c-.36.02-.86.11-1.2-.03l1.73-7.23c.55-.41,1.1-.65,1.78-.69-.89,2.02-1.45,4.09-1.93,6.24-.13.56-.31,1.15-.38,1.71Z"/>
      <path class="cls-11" d="M50.76,78.26h-.01c-2.09.66-4.16.65-6.3.28-2.1-.37-4.21-.96-6.09-1.98-.49-.27-1.09-.59-1.41-1.07-.13-.19-.08-.38-.04-.59.13-.02.28.11.4.17l1.06.58c1.19.59,2.45,1.04,3.73,1.4l1.39.35.08.03,2.06.35-.1.06c.03.06.07.12.11.17.14.02.27.06.4.1l1.87.06.96.07c.42.01.82-.04,1.24-.1l.06.05c-.16.04-.31.07-.48.08v.14c.09.04.1.04.19.04l.04-.04c.1,0,.13.02.22-.04h.09s.04-.04.04-.04c.09,0,.11.02.17-.04.09,0,.11.02.17-.04l.11-.02.03.06Z"/>
      <path class="cls-25" d="M43.58,77.43l2.06.35-.1.06c.03.06.07.12.11.17.14.02.27.06.4.1-.29.01-.58-.04-.87-.06-.82-.08-1.61-.22-2.42-.38h-.07c.1-.05.19-.03.29,0,.14.05.29.06.44.09l.26.04c.11.02.26.03.36.06.07.02.03.02.13.02l.16.02h.06s.02,0,.02,0l-.08-.23-.15-.06-.2-.03c-.12-.03-.24-.07-.37-.08h-.06s.05-.06.05-.06Z"/>
      <path class="cls-9" d="M14.95,3.58c.05.21.08.44.18.63.08.15.17.25.34.3.07.02.12.03.18.08-.09.18-.12.4-.17.6-.62.29-1.24.85-1.78,1.27l-5.3,4.58-.36.36c0-.24.02-.49-.14-.69.04-.25.51-.66.69-.87,1.97-2.23,4.12-4.32,6.37-6.27Z"/>
      <path class="cls-2" d="M5.68,43.13l-.63-.32c.37-1.2.63-2.39,1.11-3.56,1.3-3.2,3.89-6.43,6.88-8.18.82-.48,1.93-1.11,2.9-.85l-.04.03c-.34.23-.76.36-1.13.53-.44.2-.84.45-1.25.71-.93.6-1.77,1.3-2.58,2.06-1.78,1.68-3.28,3.66-4.18,5.95-.3.76-.55,1.54-.76,2.33-.11.41-.16.9-.33,1.29Z"/>
      <path class="cls-14" d="M40.88,69.01c-.09-.05-.24-.05-.34-.06-.27-.03-.53-.07-.8-.13,1.31-2.83,1.94-5.98,2.18-9.08.16-.06.35-.07.52-.09l.92-.12c-.15,1.34-.42,2.64-.73,3.95-.2.84-.39,1.67-.65,2.49-.33,1.01-.82,2.02-1.09,3.04Z"/>
      <path class="cls-24" d="M59.58,13.53c-.69-.43-1.51-1.13-1.7-1.95-.14-.58-.08-1.19-.5-1.68-.49-.57-1.44-.48-1.87-1.06-.09-.12-.08-.21-.06-.35.07-.13.13-.2.27-.27.53-.3,1.23-.27,1.8-.12.15.16.29.19.47.29.26.15.53.37.71.6.15.2.33.41.44.63v.17c.1.07.17.08.29.06.18-.04.27-.08.46-.07.3.35.43.85.48,1.3.05.43.08.89-.03,1.31l-.02.07c-.05.17-.12.32-.2.47l-.03.05c-.1.18-.33.44-.51.54Z"/>
      <path class="cls-10" d="M60.01,16.17h.04c.28.1.59.19.89.23-.85,2.15-2.04,4.19-3.41,6.04-.81,1.08-1.63,2.08-2.62,3-.73.67-1.51,1.22-2.29,1.83l-.21-1.26c.61-.48,1.24-.92,1.83-1.43,2.06-1.79,3.7-4,4.89-6.45.3-.62.71-1.3.88-1.96Z"/>
      <path class="cls-6" d="M62.83,9.26c.79.39,1.41.94,1.7,1.79.17.51.13,1.03-.13,1.51-.44.83-1.21,1.43-2.11,1.7-.35.1-.76.19-1.12.16h-.15s-.03.07-.03.07c.27.21.74.22,1.07.24.04,0,.27,0,.3,0,.03.02.04.06.06.09,0,.35-.16.64-.3.94-.09.05-.19.04-.3.04-.45,0-.88-.08-1.31-.2l-1.06-.33.03-.03c.36-.29.56-1.09.71-1.53l-.61-.02v-.16c.18-.11.41-.36.51-.54l.03-.05c.08-.15.16-.3.2-.47l.02-.07c.11-.43.09-.88.03-1.31-.06-.45-.18-.95-.48-1.3-.19-.01-.28.03-.46.07-.12.03-.19.02-.29-.06v-.17s.06-.02.06-.02c.24-.02.46-.04.7.02.61.16,1.23.51,1.56,1.07.27.46.31,1.04.15,1.55-.18.57-.53.92-.97,1.3.26-.08.51-.17.75-.29h0c.19-.02.22-.08.35-.21h.11c.08-.1.14-.18.24-.26l.02.06c-.05.08-.08.16-.16.22l-.05.03c-.04.12-.15.17-.24.25l-.08.07c-.11.06-.12.11-.19.22l.02.08-.09.03.04.04c.3-.07.63-.26.9-.41.64-.36,1.08-.91,1.28-1.62.1-.36.14-.92,0-1.27-.05-.13-.15-.23-.24-.33-.21-.26-.39-.56-.5-.88Z"/>
      <path class="cls-24" d="M45.87,72.41c.67-.38,1.38-.82,2.18-.69h.08c1.29.19,2.67,1.26,3.44,2.28.43.57.78,1.23.94,1.93-.72.53-1.51.8-2.34,1.09-.42-1.86-1.61-3.43-3.37-4.19-.29-.12-.74-.17-.93-.41Z"/>
      <path class="cls-18" d="M25.92,75.14l.44-.44h.09c.09.22.08.45-.01.65-.03.07-.14.28-.21.31-.23.39-.64.7-.99.98-1.58,1.27-3.51,2.14-5.47,2.63-1.89.46-3.89.42-5.77-.05-.61-.15-1.27-.35-1.81-.69-.25-.15-.5-.38-.56-.68-.03-.15-.02-.26,0-.41l.06-.02c.29.2.6.35.93.48.22.08.46.15.67.25.99.22,1.95.39,2.96.42,2.7.07,5.54-.7,7.85-2.1.64-.39,1.28-.82,1.82-1.34Z"/>
      <path class="cls-24" d="M25.92,75.14l.09.19-.42.49c-1.4,1.29-3.15,2.3-5.01,2.77-.59.15-1.19.23-1.79.29-.55.06-1.09.11-1.64.09-1.1-.05-2.25-.17-3.31-.46-.22-.06-.5-.11-.69-.24-.07-.05-.1-.04-.19-.06-.11-.03-.23-.1-.33-.15.23-.03.4.15.65.11.99.22,1.95.39,2.96.42,2.7.07,5.54-.7,7.85-2.1.64-.39,1.28-.82,1.82-1.34Z"/>
      <path class="cls-25" d="M4.37,44.96c1.02.58,2.11.94,3.29.62.15-.04.32-.07.45-.16l.21-.02c.72,1.03.13,2.67,1.77,2.98.13.02.27.03.4.03h.15c.08.14.08.26.04.42-.07.28-.25.56-.51.71-.42.24-1.01.21-1.45.06-.33-.11-.64-.32-.88-.57l.02-.06c.07-.2.17-.46.09-.66-.11.05-.28.42-.38.54-.3.35-.65.65-.96.99-.44.47-.86,1.09-1.1,1.68-.11.27-.16.55-.23.83l.53-.58c.12.26.39.79.27,1.07-.09.21-.29.35-.5.43-.2.08-.42.05-.61-.04-.53-.24-.92-.7-1.1-1.25-.06-.17-.07-.36-.1-.54l.07.06c.23.2.43.39.74.42.25-.14.33-.62.42-.87.09-.24.18-.48.3-.7.7-1.35,2.22-2.19,2.72-3.66-.68.02-1.42.03-2.06-.24-.52-.22-.93-.56-1.29-1-.1-.12-.23-.25-.28-.39l-.02-.07Z"/>
      <path class="cls-24" d="M8.1,45.42l.21-.02c.72,1.03.13,2.67,1.77,2.98.13.02.27.03.4.03l-.03.04c-.21.21-.5.33-.79.32-.35,0-.59-.19-.83-.44-.57-.61-.77-2.08-.74-2.91Z"/>
      <path class="cls-13" d="M15.22,1.38l19.09,1.77-.38.46c-.38.01-.8-.05-1.18-.08l-1.96-.16-7.75-.59-7.84-.51c-.67.46-1.28,1.05-1.88,1.6l-2.65,2.53-1.69,1.88c.35-.68.87-1.31,1.34-1.9,1.48-1.84,3.08-3.47,4.89-4.98Z"/>
      <path class="cls-24" d="M18.12,73.41c1.54.76,2.64,2.24,3.28,3.81-1.65.63-3.56.95-5.32.85,0-.38-.07-.76-.08-1.14,0-.57.11-1.13.32-1.66.28-.71,1.1-1.55,1.81-1.85Z"/>
      <path class="cls-7" d="M16.07,78.07c-1.23-.1-2.4-.24-3.54-.75-.18-.08-.32-.14-.4-.33.08-.68.4-1.47.73-2.06.47-.83,1.25-1.65,2.2-1.91.89-.24,2.24-.08,3.05.39-.7.3-1.53,1.15-1.81,1.85-.21.52-.33,1.09-.32,1.66,0,.38.08.76.08,1.14Z"/>
      <path class="cls-22" d="M33.91,6.38l-.72.06.08-.2c.72-1.88,2.53-3.65,4.35-4.45,2.05-.91,4.6-1.26,6.73-.44-.42.15-.85.16-1.24.39-.67.39-.99.93-1.19,1.65.15-.13.27-.29.39-.44.99.03,1.96.51,2.83.92-1.6.13-3.58-.05-4.87,1.08l.57-.16c.74.15,1.42.44,2.07.83l-3.14.3h-.04c-.09,0-.14,0-.23-.04-.04-.53.13-1.08.47-1.49.34-.41.83-.6,1.3-.83-.18-.18-.37-.33-.37-.61,0-.46.28-.92.61-1.23.13-.12.27-.22.42-.31-2.53.06-5.25,1.63-6.96,3.42-.39.41-.89,1-1.05,1.55Z"/>
      <path class="cls-14" d="M58.41,15.54l1.6.63c-.18.66-.58,1.34-.88,1.96-1.2,2.45-2.83,4.66-4.89,6.45-.59.51-1.22.95-1.83,1.43l-.3-1.78c.76-.46,1.39-.98,2.01-1.62,1.66-1.73,3.11-3.77,3.99-6.01.13-.33.32-.7.31-1.06Z"/>
      <path class="cls-13" d="M33.91,6.38c.15-.55.65-1.14,1.05-1.55,1.72-1.8,4.43-3.36,6.96-3.42-.15.09-.29.19-.42.31-.33.31-.61.76-.61,1.23,0,.28.19.42.37.61-.47.23-.95.42-1.3.83-.34.41-.51.96-.47,1.49.09.04.14.04.23.04h.04s-5.85.47-5.85.47Z"/>
      <path class="cls-10" d="M16.6,30.76c.42.7.71,1.59.5,2.42-.1.41-.31.69-.69.89-.35.19-.74.31-1.11.45-.51.2-1.01.42-1.5.68-2.8,1.53-5.21,4.34-6.17,7.38l-.18.61c-.42.13-.78.18-1.22.11l.1-.02c.12-.6.46-1.31.7-1.88,1.23-2.91,3.03-5.37,5.7-7.11.6-.39,1.25-.7,1.88-1.02.33-.17.74-.34,1.03-.58.61-.49.87-1.2.95-1.95Z"/>
      <path class="cls-3" d="M9.15,14.94l2.79,16.18-.95.67-.03-.02-3.18-15.13c.4-.38.74-.83,1.08-1.27.12-.15.25-.24.29-.44Z"/>
      <path class="cls-25" d="M45.87,72.41c.19.24.64.29.93.41,1.76.76,2.95,2.33,3.37,4.19-1.33.38-2.88.44-4.25.28-.7-.08-1.39-.24-2.08-.37-.02-.37-.01-.79.05-1.16.23-1.33.86-2.56,1.97-3.35Z"/>
      <path class="cls-8" d="M9.56,14.62l.11.03.71,2.29,3.59,10.86.41,1.34c.06.19.11.47.24.62-.77.23-1.6.62-2.28,1.05l-.05.03c-.27-.3-2.69-15-2.72-16.23Z"/>
      <path class="cls-1" d="M25.42,70.79h.1c.11.27.15.59.21.88.18.85.29,1.68.34,2.55-.94,1.34-2.82,2.2-4.27,2.86-.45-1.24-1.06-2.31-2.05-3.2-.68-.6-1.38-.96-2.18-1.35.82.14,1.64.34,2.44.58.31.09.64.17.94.3.2.09.38.21.58.31.14.07.29.09.44.03.12-.05.26-.16.3-.28.18-.62-.4-1.18-.67-1.67.47-.03.95-.04,1.42-.11.87-.13,1.65-.44,2.4-.89Z"/>
      <path class="cls-10" d="M16.26,61.32c-.45-1.75-.69-3.57-1.04-5.34l-2.12-11.05-.83-4.46-.35-1.89c-.06-.33-.14-.68-.15-1.02l.81-.74,2.92,15.81.85,4.64.37,2.12c.12.71.23,1.42.58,2.06l-.24-.05c-.27-.06-.52-.07-.8-.08Z"/>
      <path class="cls-3" d="M15.95,30.23c.3.13.49.23.65.52-.08.75-.35,1.46-.95,1.95-.29.23-.69.41-1.03.58-.64.32-1.28.63-1.88,1.02-2.67,1.74-4.47,4.19-5.7,7.11-.24.57-.58,1.28-.7,1.88l-.1.02-.56-.18c.16-.39.22-.88.33-1.29.21-.79.46-1.57.76-2.33.89-2.29,2.4-4.27,4.18-5.95.8-.76,1.65-1.46,2.58-2.06.4-.26.81-.5,1.25-.71.37-.17.8-.3,1.13-.53l.04-.03Z"/>
      <path class="cls-24" d="M1.98,47.54c-.67.65-.96,1.31-1.12,2.22-.2-1.02-.08-1.73.44-2.63.49-.86,1.21-1.6,1.95-2.25.13-.11.37-.35.54-.38.07-.01.24.16.3.21.03.03.28.22.28.24l.02.07c.05.14.18.27.28.39.36.44.76.78,1.29,1,.64.27,1.38.26,2.06.24-.5,1.47-2.02,2.31-2.72,3.66-.12.23-.22.46-.3.7-.09.26-.17.73-.42.87-.31-.02-.51-.22-.74-.42l-.07-.06c-.05-.61.09-1.2.33-1.75.08-.2.18-.37.22-.59-.2.15-.36.46-.49.67-.05.03-.15.06-.19.09-.36.32-.34,1.46-1.02,1.19l-.33-.15c-.14-.96.31-1.74.66-2.59-.31.35-.54.7-.75,1.11-.05.01-.19.02-.23.05-.21.14-.3.65-.63.62l-.04-.1c0-.66.14-1.21.41-1.8.1-.22.21-.41.28-.64Z"/>
      <path class="cls-1" d="M37.86,70.38c1.06.83,2.12.95,3.42.85-.15.26-.39.57-.36.89.02.2.14.3.29.42.5.07,1.14-.47,1.57-.71.13-.08.29-.18.45-.2-.17.24-.34.48-.45.76l-.03.06c-.06.15-.12.4-.06.56.03.09.15.21.24.24.11.04.21.03.32,0,.32-.12.6-.37.89-.54.41-.25.87-.46,1.32-.64-.06.17-.43.45-.56.61-.19.22-.35.45-.52.68-.71,1.13-.93,2.19-.95,3.51-2.11-.56-4.26-1.23-6.05-2.53.01-1.31.23-2.67.48-3.95Z"/>
      <path class="cls-13" d="M14.52,9.83l9.55,48.26c-.15-.07-.32-.13-.45-.22-.16-.19-.23-.67-.29-.91l-.58-2.74-1.33-7.01-.64-3.02-1.8-8.72-1.21-6.13-2.1-8.73-1.33-5.17c-.32-1.25-.63-2.54-1.05-3.75-.15-.42-.41-.77-.56-1.18.25.25.45.4.77.56.33-.4.64-.86,1.01-1.22l.03-.03Z"/>
      <path class="cls-10" d="M55.42,55.89s.06.03.09.04l-.88.97c-.2.2-.34.3-.63.35l-2.87.36-4.85.61-14.83,1.74-5.87.69-1.08.14c-.24.04-.5.11-.74.1-.59-.02-1.12-.49-1.5-.88l-.22-.27,1.12-.88c.08-.06.51-.4.56-.4.04,0,.16.08.2.1l.63.34c.3.15.61.25.94.29h.07c.57.09,1.17.04,1.75,0l2.13-.22,2.97-.34,13.84-1.62,9.18-1.12Z"/>
      <path class="cls-20" d="M12.43,11.68l3.57,17.96c-.15.07-.47,0-.65,0-.25.02-.49.06-.73.12-.13-.15-.18-.43-.24-.62l-.41-1.34-3.59-10.86-.71-2.29-.11-.03v-.03c.24-.07.5-.49.67-.69l1.33-1.48c.25-.27.53-.58.86-.75Z"/>
      <path class="cls-9" d="M15.54,3.12c.17-.05.45.01.64.03l1.38.1,15.86,1.16c.01.08-.13.27-.17.34-.12.22-.23.45-.33.69l-5.88-.22c.18.14,1.54.17,1.85.18l3.94.25-.2.84-10.85.84-4.75.35-.04-.06s.05-.07.09-.1c.18-.11.68-.13.89-.16,1.26-.19,2.48-.41,3.76-.44v-.05c-.4-.11-.89-.04-1.3-.03l-3.39.28c-.1-.1-.21-.19-.33-.26-.18-.1-.35-.12-.5-.28l.03-.05c.43-.17,1.06-.14,1.53-.18l2.75-.23c-.11-.1-4.03.02-4.57.03.01-.3.07-.58.14-.88.84-.11,1.73-.1,2.58-.12l4.34-.12-6.92-.24c-.03-.1.01-.19.04-.29.15-.03.31-.03.46-.04l.05-.07c-.16-.17-.64-.12-.88-.22-.15-.07-.25-.17-.3-.33-.07-.23-.03-.53.08-.74Z"/>
      <path class="cls-24" d="M29.74,4.64s.06-.03.11-.03c.1,0,.22.03.33.03.21,0,.82-.04.96.08l-.02.14c-.21.12-1.1-.02-1.35-.08l-.02-.15Z"/>
      <path class="cls-3" d="M12.51,10.3l.2.22c.15.41.41.76.56,1.18.43,1.21.73,2.5,1.05,3.75l1.33,5.17,2.1,8.73,1.21,6.13,1.8,8.72.64,3.02,1.33,7.01.58,2.74c.06.24.13.72.29.91-.25.03-.56.34-.76.5l-.99.73-1.3-6.99-2.16-11.44-1.04-5.51c-.03-.16-.16-.63-.13-.76.02-.09.21-.32.26-.41.4-.74.43-1.69.17-2.49-.25-.77-.56-1.34-1.31-1.72l-3.86-19.48Z"/>
      <path class="cls-12" d="M14.85,9.92l-.2-.95c.08-.06.32-.06.43-.07l1.67-.16,21.29-1.83,5.92-.48,3.98-.33,2.14,12.38c.61,3.58,6.1,36.29,5.87,36.68l-.36.05L46.88,7.17l-32.02,2.75Z"/>
      <path class="cls-8" d="M14.58,35.59l2.34-.91,3.28,17.14,1.38,7.5c-.19.24-.59.45-.84.63l-1.43,1.04c-.27.19-.62.44-.94.51-.18.04-.38.02-.54-.09-.33-.23-.45-.67-.55-1.04-.39-1.45-.6-2.99-.85-4.47l-.72-3.99-1.29-6.9-1.55-8.38c.53-.41,1.1-.74,1.7-1.04Z"/>
      <path class="cls-20" d="M14.58,35.59l2.34-.91,3.28,17.14c-.15.18-.24.42-.35.62l-1.05,2.24c-.28-.81-.41-1.72-.58-2.56l-.94-4.53-1.32-5.93-1.39-6.07Z"/>
      <path class="cls-13" d="M14.85,9.92l32.02-2.75,8.72,48.05-5.49.71-16.72,1.95-3.9.4c-1.15.14-2.34.34-3.49.35-.46,0-.96-.03-1.35-.29-.17-.11-.22-.29-.27-.47-.36-1.33-.52-2.74-.78-4.1l-1.95-10.45L14.85,9.92Z"/>
      <path class="cls-5" d="M27.03,29.63c.28-.01.53-.02.81.04.61.12,1.14.43,1.49.95-.75-.41-1.62-.57-2.47-.57-.85.13-1.54.37-2.31.73.75-.64,1.49-1,2.47-1.15Z"/>
      <path class="cls-5" d="M43.69,42.52h.06c0,.07.02.13,0,.2-.08.69-.59,1.41-1.13,1.83-.82.62-1.86.75-2.86.62-.4-.05-.75-.14-1.13-.29l-.5-.26c.9.12,1.82.2,2.71.01,1.31-.27,2.12-1.02,2.84-2.11Z"/>
      <path class="cls-3" d="M38.86,24.07c.65,1.6,1.68,3.12,3.32,3.82.71.3,1.41.33,2.16.18-.16.27-.55.53-.83.65-.51.23-1.06.18-1.57-.02-1.21-.49-2.16-1.93-2.67-3.09-.17-.39-.57-1.15-.41-1.56Z"/>
      <path class="cls-3" d="M34.84,27.46s.08.14.08.19c.03.39-.26,1.04-.4,1.4-.31.81-.82,1.8-1.66,2.16-.56.24-1.14.2-1.7-.04-.35-.15-1.11-.53-1.26-.88.84.23,1.62.31,2.45-.04,1.26-.54,1.98-1.56,2.48-2.79Z"/>
      <path class="cls-5" d="M40.34,9.96c.25-.03.55-.04.8.01l.07.02c.27.06.52.13.77.24,1.48.64,2.65,2.09,3.35,3.51.21.42.36.88.54,1.31l-1.4-1.37c-.55-.47-1.19-.9-1.86-1.21-1.52-.7-2.93-.52-4.45.05.09-.39.22-.75.41-1.1.41-.73.94-1.24,1.76-1.47Z"/>
      <path class="cls-5" d="M28.09,11.14l.41-.02c1.35,0,2.13.81,3.02,1.7-.58-.09-1.28-.03-1.85.04-2.05.26-3.29,1.31-4.51,2.9-.52.73-.99,1.46-1.35,2.29-.04-1.6.31-3.15,1.18-4.51.75-1.18,1.74-2.08,3.12-2.39Z"/>
      <path class="cls-5" d="M38.86,24.07c-.23-.61-.4-1.24-.5-1.89-.26-1.66-.11-3.5.92-4.89.52-.71,1.28-1.23,2.16-1.37.99-.15,1.94.19,2.72.78,1.61,1.21,2.53,3.19,2.8,5.15.25,1.84.02,3.61-1.14,5.12l-.2.27c.99-.14,2-.08,2.83.54.21.16.38.34.55.55-1.25-.72-2.62-.86-4.01-.48-.22.06-.44.13-.65.23-.75.14-1.45.12-2.16-.18-1.64-.7-2.67-2.22-3.32-3.82Z"/>
      <path class="cls-25" d="M39.46,18.08l.02.07c.04.2-.08.5-.11.7-.04.23-.05.46-.05.69,0,1.09.27,2.14.43,3.21.04.24.02.66.11.87.13.32.42.64.64.9.38.43.78.86,1.25,1.19.63.44,1.55.72,2.32.58.79-.14,1.55-.8,1.99-1.46.09-.13.16-.27.22-.41.05-.11.11-.21.18-.3-.06.66-.3,1.3-.61,1.88-.39.72-.91,1.3-1.72,1.53-.71.21-1.54-.04-2.17-.39-1.38-.76-2.37-2.46-2.79-3.93-.48-1.68-.58-3.58.29-5.15Z"/>
      <path class="cls-24" d="M39.46,18.08c.42-.73.99-1.34,1.83-1.57.77-.2,1.6.05,2.26.45,1.48.9,2.38,2.67,2.77,4.31.22.93.28,1.9.14,2.86-.07.09-.14.19-.18.3-.06.15-.13.28-.22.41-.44.65-1.21,1.31-1.99,1.46-.77.14-1.69-.14-2.32-.58-.47-.33-.87-.76-1.25-1.19-.23-.26-.51-.58-.64-.9-.09-.21-.08-.63-.11-.87-.16-1.07-.43-2.12-.43-3.21,0-.23.01-.47.05-.69.03-.2.15-.5.11-.7l-.02-.07Z"/>
      <path class="cls-5" d="M41.2,20.93c.26-.02.46-.01.7.09.52.24.86.76,1.05,1.29.22.61.24,1.4-.06,1.98-.2.4-.42.61-.84.75-.24,0-.46-.03-.68-.12-.52-.22-.91-.72-1.12-1.24-.27-.7-.2-1.42.12-2.09.17-.36.47-.54.82-.67Z"/>
      <path class="cls-24" d="M40.88,21.42c.13-.02.24-.03.36.02.18.08.33.23.39.42.07.21.03.42-.07.61-.11.2-.26.27-.46.33-.13,0-.27,0-.39-.05-.15-.05-.3-.18-.36-.33-.06-.15-.05-.41.02-.56.1-.23.29-.35.52-.44Z"/>
      <path class="cls-5" d="M29.91,30.29c-.45-.23-.89-.45-1.29-.76-.78-.61-1.42-1.56-1.84-2.45-.93-1.98-1.23-4.51-.47-6.6.43-1.18,1.14-2.28,2.32-2.82.84-.39,1.86-.4,2.72-.08,1.43.53,2.49,1.82,3.11,3.17.93,2.03,1.18,4.59.39,6.7-.51,1.23-1.22,2.25-2.48,2.79-.83.35-1.61.27-2.45.04Z"/>
      <path class="cls-25" d="M34.73,25.46c.01,1.09-.58,2.43-1.26,3.26-.5.62-1.23,1.09-2.04,1.16-.88.08-1.76-.21-2.43-.79-1.57-1.34-2.38-3.29-2.53-5.32-.11-1.5.11-3.39,1.14-4.57v.04c-.03.23-.17.43-.25.65-.11.31-.21.65-.27.97-.45,2.17.18,4.68,1.55,6.4.62.78,1.48,1.44,2.49,1.6h.07c.09.03.05.02.15.02.09,0,.05,0,.12.02.15.06.5.02.67.02.15-.1.28-.05.4-.13h.09s.04-.02.04-.02c.05-.03.08-.03.14-.05l.13-.04.06-.02c.11-.04.21-.09.31-.14.13-.06.21-.18.35-.23.05-.07.07-.1.11-.17l.03-.04c.11-.15.23-.36.29-.54l.18-.46c.02-.07,0-.05.06-.1v-.08c.03-.07.04-.12.09-.18l-.02-.07.04-.07c.03-.07.04-.15.05-.22l.05-.26.02-.05c.03-.08.02-.14.03-.21l.02-.04c-.01-.19,0-.2.1-.35Z"/>
      <path class="cls-24" d="M27.61,19.21c.49-.65,1.23-1.14,2.04-1.26.92-.14,1.75.18,2.49.72,1.44,1.06,2.29,2.98,2.53,4.71.09.65.17,1.43.06,2.08-.11.15-.11.16-.1.35l-.02.04c-.02.08,0,.13-.03.21l-.02.05-.05.26c-.01.07-.02.15-.05.22l-.04.07.02.07c-.05.06-.06.11-.07.18v.08c-.07.06-.05.03-.08.1l-.18.46c-.06.17-.18.39-.29.54l-.03.04c-.04.07-.05.11-.11.17-.14.05-.22.17-.35.23-.1.05-.2.11-.31.14l-.06.02-.13.04c-.06.02-.08.02-.14.05l-.04.03h-.09c-.13.07-.25.02-.4.12-.17,0-.52.05-.67-.02-.07-.03-.02-.02-.12-.02-.1,0-.06,0-.15-.01h-.07c-1.01-.18-1.87-.83-2.49-1.61-1.37-1.72-2.01-4.23-1.55-6.4.07-.32.16-.66.27-.97.08-.22.22-.42.25-.65v-.04Z"/>
      <path class="cls-5" d="M29.39,22.63c.29-.02.55.02.81.17.58.32.93.93,1.09,1.56.19.72.13,1.5-.26,2.15-.21.35-.52.49-.89.57-.36,0-.65-.03-.96-.23-.57-.36-.9-1.05-1.03-1.69-.13-.63-.07-1.37.29-1.91.24-.35.55-.54.96-.62Z"/>
      <path class="cls-24" d="M29.02,23.04c.11-.02.2-.03.31,0,.21.06.37.23.47.42.09.19.11.49.03.69-.11.27-.25.4-.51.51-.14,0-.34,0-.48-.05-.15-.06-.27-.19-.33-.33-.1-.22-.06-.55.03-.76.1-.24.24-.38.48-.49Z"/>
      <path class="cls-5" d="M46.51,29.01c.45-.02.83.03,1.24.24.62.32.86.94,1.06,1.57-.39-.35-.75-.69-1.19-.98-.1.26-.2.48-.38.69-.1.11-.09.5-.11.67l-.25,2.23c-.11.78-.28,1.56-.48,2.33-.64,2.44-1.84,4.97-4.11,6.29-1.82,1.05-4.19,1.19-6.19.64-3.65-1-6.1-4.21-7.89-7.34l-1.11-2.14c-.41.7-.62,1.4-.83,2.17-.15-.94-.04-1.7.37-2.55.26-.54.68-1.18,1.28-1.37.63-.19,1.21.05,1.77.32h-.83c-.76.06-1.04.36-1.52.91.09.14.34.3.48.39.96.65,2.16.93,3.29,1.11,2.75.45,5.69.33,8.42-.2,2.84-.56,6.06-1.86,7.73-4.35-.31-.34-.94-.23-1.32-.37.13-.18.38-.23.58-.28Z"/>
      <path class="cls-12" d="M38.19,39.63h0c1.61-.1,3.23.6,4.42,1.65-.74.59-1.65.9-2.56,1.09-1.72.36-3.71.04-5.28-.69-.62-.29-1.16-.69-1.7-1.09.18-.14.44-.24.65-.32.7-.29,1.39-.44,2.15-.44,1.54,0,2.58.92,3.6,1.95l-.06-.2c-.3-.93-1.09-1.42-1.91-1.84l.7-.1Z"/>
      <path class="cls-21" d="M46.45,31.37l-.24,2.02v.1c-.06.18-.21.32-.34.46-.47.49-1.03.91-1.59,1.28-3.65,2.42-8.39,2.57-12.56,1.72-.59-.12-1.19-.25-1.77-.44-.07-.02-.25-.06-.3-.1-.05-.04-.12-.18-.16-.24l-.41-.63-.9-1.53c.47.14.92.32,1.39.44,1,.26,2.08.42,3.11.5,4.08.31,8.68-.19,12.21-2.38.55-.34,1.06-.77,1.55-1.19Z"/>
    </g>
  </g>
</svg>