<?xml version="1.0" encoding="UTF-8"?>
<svg id="Layer_2" data-name="Layer 2" xmlns="http://www.w3.org/2000/svg" xmlns:xlink="http://www.w3.org/1999/xlink" viewBox="0 0 577.81 71.99">
  <defs>
    <style>
      .cls-1 {
        fill: #052d5c;
      }

      .cls-1, .cls-2, .cls-3, .cls-4, .cls-5, .cls-6, .cls-7, .cls-8, .cls-9, .cls-10, .cls-11, .cls-12, .cls-13, .cls-14, .cls-15, .cls-16, .cls-17, .cls-18, .cls-19, .cls-20, .cls-21, .cls-22, .cls-23, .cls-24, .cls-25 {
        stroke-width: 0px;
      }

      .cls-2 {
        fill: #f95443;
      }

      .cls-3 {
        fill: #df4816;
      }

      .cls-4 {
        fill: url(#linear-gradient);
      }

      .cls-5 {
        fill: #000;
      }

      .cls-6 {
        fill: url(#linear-gradient-6);
      }

      .cls-7 {
        fill: #9db2c5;
      }

      .cls-8 {
        fill: #00577e;
      }

      .cls-9 {
        fill: #ece2b5;
      }

      .cls-10 {
        fill: #aa2f03;
      }

      .cls-11 {
        fill: url(#linear-gradient-5);
      }

      .cls-12 {
        fill: #fe955a;
      }

      .cls-13 {
        fill: #f76f1b;
      }

      .cls-14 {
        fill: #d81716;
      }

      .cls-15 {
        fill: url(#linear-gradient-2);
      }

      .cls-16 {
        fill: #cec49c;
      }

      .cls-17 {
        fill: #2e9ed2;
      }

      .cls-18 {
        fill: url(#linear-gradient-7);
      }

      .cls-19 {
        fill: url(#linear-gradient-3);
      }

      .cls-20 {
        fill: #0a81b5;
      }

      .cls-21 {
        fill: url(#linear-gradient-8);
      }

      .cls-22 {
        fill: #fca504;
      }

      .cls-23 {
        fill: url(#linear-gradient-4);
      }

      .cls-24 {
        fill: #fefefe;
      }

      .cls-25 {
        fill: #c2cdd5;
      }
    </style>
    <linearGradient id="linear-gradient" x1="74.5" y1="702.24" x2="72.77" y2="701.83" gradientTransform="translate(-13.84 693.14) scale(.98 -.98)" gradientUnits="userSpaceOnUse">
      <stop offset="0" stop-color="#d5e1ed"/>
      <stop offset="1" stop-color="#fff"/>
    </linearGradient>
    <linearGradient id="linear-gradient-2" x1="73.98" y1="701.13" x2="73.54" y2="701.62" gradientTransform="translate(-13.84 693.14) scale(.98 -.98)" gradientUnits="userSpaceOnUse">
      <stop offset="0" stop-color="#b1becd"/>
      <stop offset="1" stop-color="#d6e2ea"/>
    </linearGradient>
    <linearGradient id="linear-gradient-3" x1="25.64" y1="701.36" x2="24.61" y2="702.26" gradientTransform="translate(-13.84 693.14) scale(.98 -.98)" gradientUnits="userSpaceOnUse">
      <stop offset="0" stop-color="#dddbb2"/>
      <stop offset="1" stop-color="#fffee7"/>
    </linearGradient>
    <linearGradient id="linear-gradient-4" x1="58.98" y1="639.88" x2="59.82" y2="638.02" gradientTransform="translate(-13.84 693.14) scale(.98 -.98)" gradientUnits="userSpaceOnUse">
      <stop offset="0" stop-color="#d5d8db"/>
      <stop offset="1" stop-color="#fff"/>
    </linearGradient>
    <linearGradient id="linear-gradient-5" x1="53.77" y1="638.05" x2="54.38" y2="639.86" gradientTransform="translate(-13.84 693.14) scale(.98 -.98)" gradientUnits="userSpaceOnUse">
      <stop offset="0" stop-color="#959da1"/>
      <stop offset="1" stop-color="#c2cace"/>
    </linearGradient>
    <linearGradient id="linear-gradient-6" x1="73.11" y1="698" x2="68.76" y2="698.64" gradientTransform="translate(-13.84 693.14) scale(.98 -.98)" gradientUnits="userSpaceOnUse">
      <stop offset="0" stop-color="#a4bdce"/>
      <stop offset="1" stop-color="#d7dee2"/>
    </linearGradient>
    <linearGradient id="linear-gradient-7" x1="29.21" y1="635.65" x2="33.95" y2="643.92" gradientTransform="translate(-13.84 693.14) scale(.98 -.98)" gradientUnits="userSpaceOnUse">
      <stop offset="0" stop-color="#aab3b8"/>
      <stop offset="1" stop-color="#c3d8e4"/>
    </linearGradient>
    <linearGradient id="linear-gradient-8" x1="47.92" y1="681.09" x2="49.76" y2="675.55" gradientTransform="translate(-13.84 693.14) scale(.98 -.98)" gradientUnits="userSpaceOnUse">
      <stop offset="0" stop-color="#d3dde2"/>
      <stop offset="1" stop-color="#fff"/>
    </linearGradient>
  </defs>
  <g id="Layer_1-2" data-name="Layer 1">
    <g>
      <path class="cls-5" d="M37.01,0c1.09-.06,2.29.14,3.27.62.57.28,1.06.64,1.56,1.02-.27.04-.55.04-.82.07-.62.08-1.32.2-1.9.43.7.24,1.35.51,2,.86.19.1.45.21.59.37.2.22.35.66.44.94.01.04.11.39.13.4.02.01.24,0,.28,0,.31,0,.69,0,.95.18.1.07.15.17.18.29.15.49.23,1.01.32,1.51l.45,2.58,1.24,7.01c.23,1.3.39,2.64.68,3.93.43-.3.82-.68,1.21-1.04,1.3-1.25,2.38-2.72,3.31-4.26.09-.14.79-1.4.79-1.46,0-.03-.05-.04-.08-.07-.1-.09-.21-.18-.29-.29-.07-.09-.11-.2-.14-.31-.11-.5.13-.98.4-1.39-.2-.27-.38-.53-.47-.85-.11-.37-.03-1.01-.33-1.28-.18-.16-.44-.21-.66-.29-.36-.11-.81-.33-1.03-.64-.17-.25-.23-.58-.16-.88.08-.34.36-.61.66-.77.75-.41,1.49-.3,2.27-.09l.05-2.11c.06-.61.22-1.36.73-1.75.32-.25.77-.25,1.13-.08.05.02.42.24.42.24.05-.02.16-.11.21-.15.27-.18.55-.23.86-.18.5.07.87.48,1.16.86.1-.05.22-.1.33-.12.87-.13,1.39.54,1.61,1.3.03.1.06.37.1.44.05.08.46.21.57.31.97.81.22,2.7-.29,3.58-.11.19-.24.38-.36.56-.01.02-.11.14-.11.16-.02.16.11.47.13.66.09.97-.58,1.94-1.37,2.44-.08.05-.61.3-.63.34-.03.05-.01.21-.02.27,0,.37-.1.74-.35,1.02-.25.28-.55.36-.91.37h-.06c-.13.11-.2.4-.26.56l-.49,1.07c-.61,1.24-1.28,2.47-2.06,3.6-.92,1.34-1.99,2.61-3.2,3.69-.42.37-.88.71-1.34,1.03-.09.07-.5.29-.54.36,0,0,.01.09.01.09l.9,5.4,2.33,14.19.56,3.45.15.97c.03.19.07.39.01.57l-.02.05c-.03.09-.07.16-.13.23-.22.28-.56.47-.82.71-.28.25-.54.54-.8.82-.12.13-.26.29-.43.36-.23.09-.56.11-.81.14l-2.33.29-5.39.64c-.28,2.55-.92,5-2.09,7.28.37.23.67.44.86.85.2.45.11.81-.05,1.25.21-.01.46-.04.67,0l.05.02c.15.04.28.09.41.16.05.03.15.1.2.11.04,0,.18-.02.23-.03.4-.05.76-.04,1.12.16.2.11.3.26.42.45.02.03.09.17.11.18.05.03.46-.02.55-.02.63,0,1.21.22,1.77.5,1.49.76,2.49,1.98,3.01,3.56.04.04.07.06.12.08.1.05.17.08.23.17.2.3.3.88.23,1.23-.09.44-.37.75-.73.99-.53.36-1.17.59-1.78.79-2.22.7-4.37.61-6.62.14-1.86-.38-3.78-.9-5.42-1.9-.43-.26-.93-.6-1.2-1.04-.21-.33-.2-.65-.16-1.02.02-.23.07-.38.22-.55.04-.05.14-.14.17-.19.02-.05.01-.24.02-.3l.08-.95c.07-.83.21-1.64.43-2.44.05-.18.02-.3,0-.49-.06-.42.06-.85.33-1.18.45-.57,1.15-.87,1.85-.97.61-2.09.99-4.19,1.21-6.36l-8.93,1.04-3.35.41c-.36.61-.62,1.27-.86,1.93-.44,1.19-.75,2.4-1.06,3.63.39.2.68.43.89.82.23.43.24.9.09,1.37l-.02.05c.23.76.4,1.53.51,2.31l.08.76c0,.08,0,.23.03.3.05.14.26.29.33.45.13.28.11.7.01.98-.37,1.1-2.44,2.43-3.44,2.94-2.77,1.41-6.13,2-9.14,1.01-.72-.24-1.69-.64-2.03-1.37-.22-.46-.19-1.09.13-1.5.11-.14.29-.27.34-.44.16-.53.33-1.08.62-1.56.55-.94,1.39-1.72,2.47-2,.39-.1.58-.4.87-.66.77-.69,1.53-1.1,2.55-1.27l-.03-.26c-.04-.54.03-1.01.39-1.43.49-.57,1.29-.77,2-.83l.91-3.82c-.21.05-.5.25-.7.35-.56.27-1.13.51-1.73.65-.83.19-1.83.21-2.57-.26-.61-.38-.95-1.03-1.18-1.68-.19-.55-.27-1.13-.38-1.69l-.66-3.39-2.04-10.63-.99-5.33-1.04,1.31c-.15.21-1.16,1.83-1.08,1.97.02.04.14.13.17.16.27.26.49.59.55.97.08.54-.12.94-.42,1.37.21.47.36.9.47,1.39.05.24.07.52.15.75.15.42,1,.19,1.31.39.14.09.25.26.29.42.11.41.01.96-.22,1.31-.26.38-.67.62-1.12.69-.77.13-1.45-.13-2.07-.57l-1.19,1.35.25.29c.21.27.33.69.28,1.03-.06.36-.31.69-.6.89-.31.21-.71.25-1.06.16-.37-.09-.59-.33-.92-.5-.3-.16-.63-.25-.94-.42-.26-.14-.43-.35-.66-.53-.22-.17-.47-.29-.69-.45-.28-.2-.52-.48-.7-.77-.49-.78-.61-1.7-.41-2.59.32-1.44,1.63-2.85,2.85-3.61-.14-.54-.21-1.09.06-1.6.26-.52.78-.8,1.31-.98.42-2.24,1.76-4.52,3.24-6.24l.94-1.03.45-.43s.1-.09.1-.1c.01-.04-.07-.31-.09-.36l-.3-1.33-1.56-7.54-.72-3.44c-.12-.6-.28-1.21-.37-1.82-.04-.26-.08-.51.04-.76.01-.02.03-.04.04-.07,0-.01-.05-.13-.05-.15l-.33-.85c-.37-.95-.81-2.1-.87-3.13-.09-1.56.59-2.76,2.1-3.27.19-.07.38-.11.59-.14.07-.01.26-.02.32-.05.03-.01.1-.14.11-.17l.35-.49,1.53-1.82c.91-1.02,1.89-1.99,2.94-2.86.14-.11.37-.34.53-.4.07-.02.21,0,.29,0l.96.07,4.86.49,8.62.85,2.32.23c.28.03.71.14.97.1.16-.02.46-.33.6-.44.19-.14.4-.27.6-.39,1.38-.8,2.91-1.18,4.49-1.27Z"/>
      <path class="cls-16" d="M8.35,10.86c.06.03.12.07.18.11l-.78.86c-.07-.07-.09-.11-.11-.21.19-.3.49-.45.69-.73l.02-.03Z"/>
      <path class="cls-24" d="M34.53,60.94c.16-.09.51-.29.7-.27-.1.22-.18.46-.31.67l-.1.02c-.08-.09-.17-.18-.23-.29l-.06-.13Z"/>
      <path class="cls-25" d="M34.21,61.18l.32-.23.06.13c-.02.18-.02.34.09.5.06.09.15.16.24.23l-.1.08s-.12-.06-.14-.08l-.16-.1c-.23-.18-.26-.26-.3-.54Z"/>
      <path class="cls-25" d="M51.43,7.24c.48.08.95.19,1.25.62.15.21.22.48.26.73h-.06c-.1-.18-.26-.38-.39-.55-.16-.21-.41-.41-.64-.54-.16-.09-.29-.12-.42-.26Z"/>
      <path class="cls-25" d="M1.15,44.69l.03.09c.3.02.38-.44.57-.56.04-.02.16-.04.21-.05-.11.26-.24.54-.29.82-.05.27-.01.56,0,.83-.26-.26-.53-.66-.53-1.04,0-.04,0-.05,0-.09Z"/>
      <path class="cls-24" d="M17.43,61.99c.05-.18.11-.33.22-.48.26-.33.87-.54,1.28-.59l.05.08-.04.08-.15.07c-.24.13-.35.31-.42.57v.05s-.25-.05-.25-.05c-.11-.02-.22-.06-.33,0l-.36.28Z"/>
      <path class="cls-25" d="M2.04,45.5l.3.14c.61.24.59-.78.91-1.07.04-.03.13-.06.17-.08-.4.89-.51,1.46-.25,2.42-.42-.24-.94-.69-1.07-1.17l-.06-.24Z"/>
      <path class="cls-20" d="M38.84,63.09c.28-.03.56.01.83.06-.36.24-.74.36-1.13.54-.32.15-.63.33-.94.51-.15.09-.42.28-.59.27-.02-.25.1-.4.25-.58.37-.45,1-.73,1.56-.79Z"/>
      <path class="cls-12" d="M6.95,14.89c-.04-.22-.09-.43-.17-.64l-.02-.05c.36-.57.85-1.08,1.3-1.59l.12.75c-.04.17-.16.26-.26.39-.3.39-.6.79-.96,1.13Z"/>
      <path class="cls-20" d="M17.23,63.25c.45-.03.9.02,1.28.29.31.22.31.4.37.75l-.86-.32c-.67-.21-1.36-.31-2.06-.4.39-.19.83-.28,1.26-.31Z"/>
      <path class="cls-13" d="M41.06,4.04h.13c.13.22.2.46.28.71l-1.7.09c-.08,0-.27.02-.34,0-.04-.02-.11-.08-.15-.11-.19-.15-.37-.29-.58-.4l-.05-.02c.83-.06,1.61-.04,2.42-.27Z"/>
      <path class="cls-13" d="M14.54,54.83c.25,0,.47.02.72.07l.21.04.31.39c.1.26.21.5.34.74.08.15.22.35.23.51l-.82-.18c-.54-.48-.77-.89-1-1.56Z"/>
      <path class="cls-20" d="M40.7,63.29c.18-.02.37,0,.54.08.1.05.21.13.24.24-.22.1-.48.14-.71.22-.58.21-1.2.57-1.68.95l-.05.04-.46.34-.07-.03v-.07c-.06-.23.13-.49.26-.67.51-.7,1.11-.97,1.94-1.1Z"/>
      <path class="cls-12" d="M11.18,9.21l-.03-.13c.13-.33,1.31-.93,1.66-1.1l.17.82-.02.02c-.33.32-.61.74-.91,1.09-.28-.14-.46-.28-.69-.5l-.18-.2Z"/>
      <path class="cls-20" d="M15.59,64.11c.99-.05,2.1.1,3.01.51.3.13.81.38.92.71.03.09.04.12,0,.2-.11.02-.18-.02-.28-.06l-.05-.02c-1.36-.61-2.75-1.03-4.25-1.1.22-.12.4-.2.64-.25Z"/>
      <path class="cls-24" d="M56.44,7.89l-.4-.19c.39-.79.73-1.68.7-2.57,0-.29-.07-.56-.11-.84.04-.08.11-.14.19-.18.14-.06.26-.04.39.02.12.68.13,1.54-.08,2.2-.17.54-.46,1.04-.7,1.56Z"/>
      <path class="cls-4" d="M57.46,8.71l-.11-.16c.17-.34.36-.65.5-1.01l.33-.95c.06-.2.08-.56.24-.7.11.03.18.06.25.16.21.31.1.85.02,1.2-.17.7-.44,1.42-.92,1.97-.07-.13-.19-.45-.3-.51Z"/>
      <path class="cls-15" d="M57.46,8.71c.15-.14.24-.31.36-.48.09-.12.2-.24.26-.38.06-.14.07-.3.1-.44l-.05-.06c.04-.09.03-.05.04-.15v-.07s.03.02.03.02v.18c.04.08.02.13.02.21.08-.08.18-.21.29-.24.04-.01.09-.02.13-.04l.06-.02c-.17.7-.44,1.42-.92,1.97-.07-.13-.19-.45-.3-.51Z"/>
      <path class="cls-24" d="M54.28,8.41c-.3-.06-.53-.15-.85-.15h-.08s-.16-.52-.16-.52c.7-.13,1.22-.04,1.9.13.4.1.73.18,1.07.41.09.28.25.56.44.78.08.09.17.18.21.3l-.02.05-.06-.04c-.2-.19-.39-.31-.63-.44-.4-.22-.84-.35-1.28-.46-.19-.05-.36-.11-.55-.05Z"/>
      <path class="cls-16" d="M14.04,5.82c.07.11.15.25.25.32.23.17.47.15.54.47l-.18.48c-.86.07-1.79.16-2.61.43v-.05c.07-.13.22-.26.32-.36.36-.36.78-.67,1.2-.97.17-.12.31-.25.5-.33Z"/>
      <path class="cls-7" d="M37.18,63.05c-.21.07-.44.11-.66.14-.7.08-1.46-.09-2.02-.54-.24-.2-.5-.48-.53-.8-.03-.3.04-.45.23-.67.04.28.07.36.3.54l.16.1s.12.08.14.08c.46.38.95.45,1.46.69.34.16.52.39.91.47Z"/>
      <path class="cls-24" d="M53.16,13.66c-.46-.16-1.01-.4-1.31-.78-.13-.16-.19-.36-.15-.57v-.05c.04-.18.12-.32.2-.48.37.15.9.58,1.31.49l.07-.02.55.02c-.14.39-.31,1.11-.64,1.37l-.02.02Z"/>
      <path class="cls-25" d="M57.22,4.13c.24.1.36.31.45.54.35.84.17,1.85-.18,2.65l-.46.97-.6-.4c.24-.51.53-1.02.7-1.56.21-.66.2-1.52.08-2.2Z"/>
      <path class="cls-25" d="M55.11,3.24c.45.16.72.49.92.91.44.92.23,1.91-.1,2.83-.06.17-.16.47-.28.6-.25-.07-.49-.13-.75-.16l-.24-.03.12-.1.16-.02c.19-.04.31-.1.41-.27.07-.13.1-.29.14-.43.23-.77.27-1.56.04-2.34-.05-.18-.1-.39-.18-.55-.07-.14-.15-.23-.21-.38l-.02-.04Z"/>
      <path class="cls-7" d="M17.43,61.99l.36-.28c.11-.06.22-.03.33,0l.23.05c.05.24.15.37.35.5.51.32,1.28.34,1.86.32l-.31.05-.3.56c-.05.16-.12.29-.09.46-.06.04-.51.04-.61.05-.07-.17-.13-.35-.25-.49-.36-.43-.95-.53-1.48-.56l-.1-.65Z"/>
      <path class="cls-25" d="M19.95,63.19v-.06c-.04-.13-.07-.4,0-.51h.3s-.3.57-.3.57Z"/>
      <path class="cls-25" d="M53.77,3.58c.74.97.54,2.5.38,3.63l-.03.19c-.29.02-.58.04-.85.18-.08-.45.16-1.04.23-1.49.05-.34.12-.7.14-1.05.04-.49.03-.96.12-1.45Z"/>
      <path class="cls-17" d="M8.55,13.05c-.06-.25-.08-.51-.11-.76.1-.22.28-.4.44-.57l.7-.77,1.3-1.51.23,1.01c-.3.15-.54.43-.77.67l-1.19,1.32c-.15.17-.39.55-.6.61Z"/>
      <path class="cls-24" d="M34.91,61.8c.72.36,1.52.5,2.31.23.27-.09.55-.23.68-.5l-.04-.04-.05.02c-.13.05-.28.04-.42.09l.47-.76c.29.16.58.33.69.67.07.21-.02.44-.12.63-.27.49-.76.7-1.25.91-.39-.08-.58-.31-.91-.47-.51-.25-1-.31-1.46-.69l.1-.08Z"/>
      <path class="cls-24" d="M20.56,62.58c.59-.08,1.26-.21,1.64-.73.05-.07.08-.12.09-.21l-.05-.05c-.15.04-.29.14-.42.22l.2-.61c.3.09.54.23.69.52.06.1.09.21.12.32-.19.57-.53.87-1.06,1.14-.59.3-1.25.42-1.91.48-.03-.17.04-.3.09-.46l.3-.56.31-.05Z"/>
      <path class="cls-13" d="M6.13,9.74h0s.93,2.87.93,2.87c-.02.14-.12.21-.21.3-.05-.03-.08-.06-.1-.12-.17-.36-.3-.76-.43-1.13-.34-.94-.86-2.27-.49-3.26.25-.68.84-1.01,1.46-1.28l-.26.76v.04c-.03.15-.05.56-.16.66-.36.31-.63.68-.74,1.15Z"/>
      <path class="cls-3" d="M6.13,9.74s-.12-.11-.14-.17c-.06-.17-.02-.52.05-.68.12-.26.39-.77.67-.87l.06-.02c.09-.03.15-.06.25-.08-.02.15-.04.56-.15.66-.36.31-.63.68-.74,1.15Z"/>
      <path class="cls-19" d="M7.38,11.05l-.14-.41c.66-.78,1.46-1.45,2.22-2.12l3.27-2.83,1.35-1.14c-.04.28-.12.55-.2.82h-.09s.02-.12.02-.12l-.06-.04c-.09.07-.12.1-.18.2l-.08.1-.05.06c-.05.06-.1.09-.17.14l-5.51,5.04c-.13.11-.25.22-.39.31Z"/>
      <path class="cls-24" d="M54.65,7.38h-.11c-.08-.07-.03-.14,0-.24.25-1.13.37-2.13-.04-3.24.04-.18.08-.37.21-.51.13-.15.22-.14.41-.14l.02.04c.06.15.14.25.21.38.09.16.13.37.18.55.24.78.19,1.57-.04,2.34-.04.14-.07.3-.14.43-.1.17-.22.24-.41.27l-.16.02-.12.1Z"/>
      <path class="cls-23" d="M40.8,69.54c2.29.32,4.61-.03,6.53-1.38h.05c.09.2.06.42.06.62-.21.5-.75.72-1.23.91-.26.1-.55.23-.83.27l-.03-.06-.09.02c-.06.06-.08.04-.16.04-.06.06-.08.04-.16.04l-.04.04h-.08c-.08.05-.1.04-.2.04l-.04.04c-.08,0-.09,0-.17-.03v-.13c.15,0,.28-.03.43-.07l-.05-.04c-.37.06-.73.1-1.11.09l-.86-.06-1.67-.05c-.12-.04-.23-.07-.36-.09-.04-.05-.07-.1-.1-.15l.09-.05Z"/>
      <path class="cls-25" d="M44.81,69.86h0c.42-.1.85-.2,1.24-.36.22-.09.45-.2.65-.32.16-.1.37-.29.53-.36.05-.02.16-.02.22-.02-.21.5-.75.72-1.23.91-.26.1-.55.23-.83.27l-.03-.06-.09.02c-.06.06-.08.04-.16.04-.06.06-.08.04-.16.04l-.04.04h-.08c-.08.05-.1.04-.2.04l-.04.04c-.08,0-.09,0-.17-.03v-.13c.15,0,.28-.03.43-.07l-.05-.04Z"/>
      <path class="cls-24" d="M53.28,7.57s-.06.05-.1.08c-.18-.23-.39-.42-.6-.62l-.04-1.57c.02-.58.06-1.71.53-2.12.09-.07.19-.09.3-.07.18.02.3.19.41.31-.09.49-.08.96-.12,1.45-.02.35-.09.7-.14,1.05-.07.46-.31,1.04-.23,1.49Z"/>
      <path class="cls-25" d="M54.28,8.41c.19-.06.37,0,.55.05.44.11.88.24,1.28.46.24.13.43.26.63.44l.06.04.02-.05c.13.32.1.81,0,1.14-.18.63-.57,1.12-1.15,1.45-.24.13-.54.3-.8.36l-.04-.04.08-.03-.02-.07c.06-.1.07-.14.17-.2l.07-.06c.08-.07.18-.11.21-.22l.04-.03c.07-.05.1-.12.15-.19v-.05c-.11.08-.16.14-.23.24h-.09c-.12.11-.15.16-.31.18.21-.17.41-.39.54-.63.26-.48.28-.98.11-1.5-.22-.64-.7-1.02-1.28-1.32Z"/>
      <path class="cls-2" d="M22.73,55.07l.67-.09c-.7,1.49-1.23,3.11-1.61,4.71-.18.76-.29,1.55-.49,2.31l-.64.18c.06-.51.23-1.03.34-1.53.43-1.92.93-3.77,1.73-5.58Z"/>
      <path class="cls-9" d="M7.38,11.05c.14-.09.26-.2.39-.31l5.51-5.04c.07-.05.11-.08.17-.14l.05-.06.08-.1c.06-.09.09-.13.18-.2l.06.04-.02.12h.09c.08.15.1.3.16.45-.19.08-.33.21-.5.33-.41.3-.84.61-1.2.97-.1.1-.25.23-.31.36v.05c-.33.17-.63.35-.91.58-1,.81-1.75,1.92-2.6,2.87-.06-.04-.11-.07-.18-.11h-.03c-.31.1-.58.29-.82.5l-.11-.31Z"/>
      <path class="cls-3" d="M46.58,21.66c-.01-.12-.15-.69-.12-.76,0-.01.15-.11.17-.13l.62-.46c.56-.46,1.09-.97,1.57-1.51,1.01-1.12,1.89-2.37,2.64-3.67.24-.42.41-.9.66-1.3l.11.07c0,.32-.16.65-.28.94-.78,2-2.08,3.83-3.57,5.38-.55.57-1.12,1.04-1.8,1.45Z"/>
      <path class="cls-24" d="M4.19,37.51h.09c0,.15.02.3,0,.45,0,.12-.05.31,0,.43l.04.06c.05.09.09.16.16.24.35.39.83.54,1.34.56.38.01,1.08,0,1.36-.32.08-.09.13-.39.16-.51.03-.1.03-.18.11-.26.19.16.3.47.35.71.06.32-.04.52-.21.77-.12.12-.27.23-.43.31-.64.37-1.45.46-2.17.26-.56-.15-1.1-.44-1.38-.98-.16-.31-.19-.7-.09-1.03.11-.35.35-.54.67-.71Z"/>
      <path class="cls-2" d="M38.76,53.22l.81-.12c-.16,1.08-.33,2.17-.6,3.23-.25.99-.59,1.93-.97,2.88-.24.6-.48,1.2-.8,1.76-.09.16-.27.58-.42.68-.05.04-.16.04-.22.04.24-.92.68-1.82.97-2.72.24-.73.41-1.48.58-2.23.27-1.17.52-2.34.65-3.53Z"/>
      <path class="cls-10" d="M15.78,55.32l.06.02c.35.13.64.11.99-.05.93-.43,1.79-1.17,2.65-1.74.15.2.29.41.48.58.29.26.64.43.97.64-1.07.67-2.26,1.4-3.48,1.74-.3.08-.66.18-.98.1l-.1-.04c-.01-.16-.16-.37-.23-.51-.13-.24-.24-.49-.34-.74Z"/>
      <path class="cls-14" d="M20.67,62.17c-.32.02-.77.1-1.08-.02l1.55-6.47c.49-.36.98-.58,1.6-.62-.8,1.81-1.3,3.66-1.73,5.58-.11.5-.28,1.02-.34,1.53Z"/>
      <path class="cls-11" d="M45.39,69.97h-.01c-1.87.59-3.72.58-5.63.25-1.88-.33-3.76-.86-5.44-1.77-.44-.24-.97-.53-1.26-.96-.11-.17-.07-.34-.04-.53.12-.02.25.1.36.16l.95.52c1.06.52,2.19.93,3.33,1.26l1.24.31.08.02,1.84.31-.09.05c.03.05.06.1.1.15.12.02.24.05.36.09l1.67.05.86.06c.38.01.73-.03,1.11-.09l.05.04c-.14.04-.28.06-.43.07v.13c.08.04.09.04.17.03l.04-.04c.09,0,.12.01.2-.04h.08s.04-.04.04-.04c.08,0,.1.02.16-.04.08,0,.1.02.16-.04l.09-.02.03.06Z"/>
      <path class="cls-25" d="M38.96,69.23l1.84.31-.09.05c.03.05.06.1.1.15.12.02.24.05.36.09-.26.01-.52-.03-.78-.06-.74-.07-1.44-.2-2.16-.34h-.06c.09-.04.17-.02.26,0,.13.04.26.05.39.08l.23.04c.1.02.23.02.32.05.07.02.02.01.11.02h.14s.05.02.05.02l.02-.02-.08-.21-.14-.05-.18-.03c-.11-.03-.21-.06-.33-.07h-.06s.04-.05.04-.05Z"/>
      <path class="cls-9" d="M13.37,3.2c.05.19.07.39.16.56.07.14.15.23.31.27.07.02.1.03.16.07-.08.16-.11.36-.15.54-.55.26-1.11.76-1.59,1.13l-4.74,4.09-.32.33c0-.22.02-.44-.12-.62.04-.22.45-.59.61-.78,1.76-1.99,3.68-3.86,5.69-5.6Z"/>
      <path class="cls-2" d="M5.08,38.57l-.56-.28c.33-1.07.57-2.14.99-3.18,1.16-2.86,3.47-5.75,6.16-7.31.74-.43,1.72-.99,2.6-.76l-.04.03c-.3.21-.68.32-1.01.48-.39.18-.75.4-1.12.63-.83.53-1.59,1.16-2.31,1.84-1.59,1.5-2.94,3.27-3.74,5.32-.27.68-.49,1.38-.68,2.09-.1.37-.15.81-.29,1.15Z"/>
      <path class="cls-14" d="M36.55,61.7c-.08-.05-.21-.04-.31-.05-.24-.03-.48-.06-.72-.11,1.17-2.53,1.74-5.35,1.95-8.12.14-.06.31-.06.46-.08l.83-.11c-.14,1.19-.38,2.36-.65,3.53-.18.75-.35,1.5-.58,2.23-.3.9-.73,1.81-.97,2.72Z"/>
      <path class="cls-24" d="M53.27,12.1c-.62-.39-1.35-1.01-1.52-1.75-.12-.52-.07-1.06-.44-1.5-.43-.51-1.29-.43-1.67-.95-.08-.1-.08-.19-.06-.31.06-.12.12-.18.24-.24.47-.27,1.1-.24,1.61-.11.13.14.26.17.42.26.23.13.48.33.64.54.13.17.3.37.39.57v.16c.09.07.15.08.26.05.16-.03.24-.07.41-.06.27.32.38.76.43,1.16.05.39.07.79-.03,1.17l-.02.06c-.04.15-.11.28-.18.42l-.02.05c-.09.16-.3.39-.45.49Z"/>
      <path class="cls-10" d="M53.66,14.46h.04c.25.09.53.17.79.2-.76,1.92-1.82,3.75-3.05,5.4-.72.97-1.46,1.86-2.34,2.68-.65.6-1.35,1.09-2.04,1.64l-.19-1.13c.54-.43,1.11-.82,1.64-1.28,1.84-1.6,3.3-3.58,4.38-5.77.27-.55.63-1.16.79-1.75Z"/>
      <path class="cls-6" d="M56.18,8.28c.71.35,1.26.84,1.52,1.6.15.46.11.92-.11,1.35-.39.74-1.08,1.28-1.89,1.52-.31.09-.68.17-1,.15h-.13s-.03.06-.03.06c.24.19.66.2.95.21.04,0,.24,0,.26,0,.03.02.04.05.06.08,0,.31-.14.57-.27.84-.08.05-.17.03-.27.03-.4,0-.79-.07-1.17-.18l-.94-.3.02-.02c.33-.26.5-.98.64-1.37l-.55-.02v-.14c.16-.1.36-.32.45-.49l.02-.05c.07-.14.14-.27.18-.42l.02-.06c.1-.38.08-.78.03-1.17-.05-.4-.16-.85-.43-1.16-.17,0-.25.03-.41.06-.11.02-.17.01-.26-.05v-.16s.05-.01.05-.01c.22-.02.41-.04.63.02.55.14,1.1.45,1.4.95.24.42.28.93.14,1.39-.16.51-.47.82-.86,1.16.23-.08.45-.15.67-.26h0c.17-.02.19-.07.31-.19h.09c.07-.09.13-.16.22-.23v.05c-.03.08-.06.14-.13.19l-.04.03c-.03.11-.13.15-.21.22l-.07.06c-.1.06-.11.1-.17.2l.02.07-.08.03.04.04c.27-.07.56-.23.8-.36.58-.33.96-.82,1.15-1.45.09-.32.12-.82,0-1.14-.05-.11-.13-.2-.21-.3-.19-.23-.35-.5-.44-.78Z"/>
      <path class="cls-24" d="M41.01,64.74c.6-.34,1.23-.73,1.95-.62h.07c1.15.17,2.39,1.13,3.07,2.03.38.51.7,1.1.84,1.72-.64.47-1.35.72-2.09.98-.38-1.66-1.44-3.06-3.02-3.74-.26-.11-.66-.15-.83-.37Z"/>
      <path class="cls-18" d="M23.17,67.19l.39-.39h.08c.08.19.07.4-.01.59-.03.06-.13.25-.18.28-.21.34-.57.63-.88.88-1.42,1.13-3.14,1.92-4.89,2.35-1.69.42-3.47.37-5.16-.05-.55-.14-1.14-.32-1.62-.62-.22-.14-.45-.34-.5-.61-.03-.13-.02-.24,0-.36l.06-.02c.26.18.54.32.83.43.19.07.41.13.6.22.88.19,1.74.35,2.65.38,2.41.06,4.95-.62,7.02-1.87.58-.35,1.14-.74,1.63-1.2Z"/>
      <path class="cls-24" d="M23.17,67.19l.08.17-.37.44c-1.25,1.15-2.82,2.05-4.48,2.48-.52.14-1.07.2-1.6.26-.49.05-.97.1-1.47.08-.99-.04-2.01-.15-2.96-.41-.2-.05-.45-.1-.61-.22-.06-.05-.09-.04-.17-.06-.1-.02-.2-.09-.29-.13.2-.02.35.13.58.1.88.19,1.74.35,2.65.38,2.41.06,4.95-.62,7.02-1.87.58-.35,1.14-.74,1.63-1.2Z"/>
      <path class="cls-25" d="M3.91,40.2c.91.52,1.89.84,2.94.56.13-.04.29-.06.4-.14l.19-.02c.65.92.12,2.39,1.59,2.66.12.02.24.02.36.03h.13c.08.13.07.23.04.37-.06.25-.23.5-.46.63-.38.21-.9.19-1.3.05-.3-.1-.58-.28-.79-.51l.02-.06c.06-.18.16-.41.08-.59-.1.04-.25.38-.34.48-.26.31-.58.58-.86.88-.39.42-.77.97-.98,1.5-.1.24-.15.5-.2.75l.47-.52c.11.23.35.71.25.96-.08.19-.26.32-.45.39-.18.07-.38.05-.55-.03-.47-.22-.82-.63-.98-1.12-.05-.15-.07-.33-.09-.49l.06.05c.2.18.38.35.66.37.22-.12.29-.55.37-.78.08-.22.17-.43.27-.63.62-1.21,1.98-1.96,2.43-3.27-.61.02-1.27.03-1.84-.21-.47-.2-.83-.5-1.15-.89-.08-.1-.2-.22-.25-.35l-.02-.06Z"/>
      <path class="cls-24" d="M7.24,40.61l.19-.02c.65.92.12,2.39,1.59,2.66.12.02.24.02.36.03l-.03.03c-.19.19-.44.3-.71.29-.32,0-.53-.17-.74-.39-.51-.55-.69-1.86-.66-2.6Z"/>
      <path class="cls-13" d="M13.61,1.23l17.07,1.58-.34.41c-.34.01-.71-.05-1.06-.07l-1.75-.14-6.93-.53-7.01-.46c-.6.41-1.15.94-1.68,1.43l-2.37,2.26-1.51,1.68c.31-.61.77-1.17,1.2-1.7,1.32-1.64,2.75-3.1,4.37-4.46Z"/>
      <path class="cls-24" d="M16.2,65.64c1.38.68,2.36,2.01,2.93,3.4-1.47.56-3.18.85-4.76.76,0-.34-.07-.68-.07-1.02,0-.51.1-1.01.28-1.48.25-.63.99-1.39,1.61-1.66Z"/>
      <path class="cls-7" d="M14.37,69.8c-1.1-.09-2.14-.21-3.16-.67-.16-.07-.29-.12-.35-.29.07-.61.36-1.31.65-1.84.42-.75,1.11-1.48,1.96-1.71.8-.21,2-.07,2.72.35-.63.27-1.36,1.03-1.61,1.66-.19.47-.29.98-.28,1.48,0,.34.07.68.07,1.02Z"/>
      <path class="cls-22" d="M30.32,5.7l-.64.06.07-.18c.64-1.68,2.27-3.26,3.89-3.98,1.83-.81,4.11-1.12,6.02-.39-.37.14-.76.14-1.11.35-.6.35-.88.83-1.06,1.47.13-.12.24-.26.35-.4.88.02,1.75.45,2.53.82-1.43.11-3.2-.05-4.36.96l.51-.15c.67.13,1.27.39,1.85.75l-2.81.27h-.03c-.08,0-.13,0-.21-.04-.04-.47.11-.96.42-1.33.31-.37.74-.54,1.16-.74-.16-.17-.33-.3-.33-.54,0-.41.25-.82.54-1.1.12-.11.24-.2.38-.28-2.26.06-4.69,1.45-6.23,3.06-.35.37-.8.9-.94,1.39Z"/>
      <path class="cls-14" d="M52.23,13.89l1.43.56c-.16.59-.52,1.2-.79,1.75-1.07,2.19-2.53,4.17-4.38,5.77-.52.46-1.09.85-1.64,1.28l-.27-1.59c.68-.41,1.25-.88,1.8-1.45,1.48-1.54,2.78-3.37,3.57-5.38.11-.29.28-.63.28-.94Z"/>
      <path class="cls-13" d="M30.32,5.7c.14-.49.58-1.02.94-1.39,1.53-1.61,3.96-3,6.23-3.06-.14.08-.26.17-.38.28-.29.28-.55.68-.54,1.1,0,.25.17.38.33.54-.42.21-.85.38-1.16.74-.3.37-.46.86-.42,1.33.08.03.12.03.21.04h.03s-5.23.42-5.23.42Z"/>
      <path class="cls-10" d="M14.85,27.5c.37.63.63,1.42.45,2.16-.09.37-.28.61-.62.8-.31.17-.67.28-1,.41-.46.18-.91.38-1.34.61-2.5,1.36-4.66,3.88-5.51,6.6l-.16.55c-.38.12-.69.16-1.09.1l.09-.02c.11-.54.41-1.17.62-1.68,1.1-2.61,2.71-4.8,5.1-6.35.54-.35,1.11-.62,1.68-.91.3-.15.66-.31.92-.52.54-.44.78-1.07.85-1.75Z"/>
      <path class="cls-3" d="M8.18,13.36l2.5,14.47-.85.6h-.03s-2.85-13.54-2.85-13.54c.36-.34.66-.74.96-1.13.1-.13.23-.22.26-.39Z"/>
      <path class="cls-25" d="M41.01,64.74c.17.22.57.26.83.37,1.57.68,2.64,2.08,3.02,3.74-1.19.34-2.57.4-3.8.25-.63-.08-1.24-.21-1.86-.33-.02-.33,0-.7.05-1.04.2-1.19.77-2.29,1.76-2.99Z"/>
      <path class="cls-8" d="M8.55,13.07l.1.03.63,2.05,3.21,9.71.37,1.2c.05.17.1.42.21.55-.69.21-1.43.55-2.04.94l-.04.03c-.25-.27-2.41-13.42-2.43-14.52Z"/>
      <path class="cls-1" d="M22.72,63.29h.09c.1.24.13.53.19.78.16.76.26,1.5.31,2.28-.84,1.2-2.53,1.97-3.82,2.56-.4-1.11-.95-2.06-1.83-2.86-.61-.53-1.24-.86-1.95-1.21.73.12,1.46.3,2.18.52.28.08.57.15.84.27.18.08.34.19.52.28.13.06.26.08.39.03.11-.04.23-.14.27-.25.16-.55-.36-1.06-.59-1.5.42-.03.85-.04,1.27-.1.78-.11,1.47-.39,2.15-.8Z"/>
      <path class="cls-10" d="M14.54,54.83c-.4-1.56-.62-3.19-.93-4.77l-1.89-9.88-.74-3.99-.31-1.69c-.05-.3-.12-.61-.13-.91l.72-.66,2.61,14.13.76,4.15.33,1.89c.11.63.2,1.27.52,1.84l-.21-.04c-.24-.05-.47-.06-.72-.07Z"/>
      <path class="cls-3" d="M14.26,27.03c.27.11.44.2.58.47-.08.67-.31,1.31-.85,1.75-.26.21-.62.36-.92.52-.57.29-1.15.56-1.68.91-2.39,1.56-4,3.75-5.1,6.35-.21.51-.52,1.14-.62,1.68l-.09.02-.5-.16c.14-.35.2-.79.29-1.15.19-.71.41-1.41.68-2.09.8-2.04,2.15-3.82,3.74-5.32.72-.68,1.47-1.31,2.31-1.84.36-.23.73-.45,1.12-.63.33-.15.71-.27,1.01-.48l.04-.03Z"/>
      <path class="cls-24" d="M1.77,42.51c-.6.58-.86,1.17-1,1.99-.18-.91-.07-1.55.39-2.35.44-.77,1.08-1.43,1.74-2.01.12-.1.33-.31.48-.34.06-.01.21.14.27.18.03.02.25.2.25.22l.02.06c.05.13.16.25.25.35.32.39.68.7,1.15.89.57.24,1.24.23,1.84.21-.45,1.32-1.81,2.07-2.43,3.27-.11.2-.19.41-.27.63-.08.23-.15.66-.37.78-.28-.02-.46-.2-.66-.37l-.06-.05c-.05-.54.08-1.07.29-1.57.08-.18.16-.33.19-.52-.17.14-.33.41-.44.6-.05.02-.13.05-.17.08-.32.28-.3,1.31-.91,1.07l-.3-.14c-.12-.86.28-1.55.59-2.32-.27.31-.48.63-.67,1-.05.01-.17.02-.21.05-.19.12-.27.58-.57.56l-.03-.09c0-.59.12-1.08.37-1.61.09-.19.19-.37.25-.57Z"/>
      <path class="cls-1" d="M33.85,62.93c.94.74,1.89.85,3.06.76-.14.23-.35.51-.32.8.02.18.12.27.26.38.45.06,1.02-.42,1.4-.63.12-.07.26-.16.4-.18-.15.22-.3.43-.4.68l-.02.06c-.06.14-.1.36-.06.5.03.08.13.18.21.22.1.04.19.03.28,0,.29-.1.54-.33.8-.48.37-.22.78-.41,1.18-.58-.05.15-.38.4-.5.54-.17.19-.31.4-.46.61-.63,1.01-.83,1.96-.85,3.14-1.89-.5-3.81-1.1-5.41-2.26,0-1.17.2-2.39.43-3.53Z"/>
      <path class="cls-13" d="M12.98,8.79l8.54,43.15c-.13-.06-.28-.12-.41-.19-.15-.17-.21-.6-.26-.82l-.52-2.45-1.19-6.27-.57-2.7-1.61-7.8-1.08-5.48-1.88-7.81-1.19-4.62c-.29-1.11-.56-2.27-.94-3.35-.13-.37-.37-.69-.5-1.05.22.22.4.36.69.5.3-.35.57-.77.91-1.09l.02-.02Z"/>
      <path class="cls-10" d="M49.55,49.97s.05.03.08.04l-.79.87c-.18.18-.31.27-.56.31l-2.57.32-4.34.55-13.26,1.56-5.25.62-.97.13c-.21.03-.45.09-.66.09-.52-.02-1-.44-1.34-.79l-.2-.24,1-.79c.07-.05.45-.36.5-.36.03,0,.15.07.18.09l.56.31c.27.13.55.22.84.26h.06c.51.08,1.05.04,1.56,0l1.9-.2,2.65-.3,12.38-1.45,8.21-1Z"/>
      <path class="cls-20" d="M11.11,10.44l3.2,16.06c-.13.06-.42,0-.58,0-.22.02-.44.05-.65.11-.11-.13-.16-.39-.21-.55l-.37-1.2-3.21-9.71-.63-2.05-.1-.03v-.02c.21-.06.45-.44.6-.61l1.19-1.32c.23-.24.47-.52.77-.67Z"/>
      <path class="cls-9" d="M13.9,2.79c.15-.04.41.01.57.02l1.23.09,14.18,1.04c.01.07-.11.24-.15.3-.11.2-.2.41-.29.62l-5.26-.2c.16.13,1.37.15,1.66.17l3.52.22-.18.75-9.7.75-4.25.31-.03-.06s.05-.06.08-.09c.16-.1.61-.11.79-.14,1.12-.17,2.22-.37,3.36-.39v-.04c-.35-.1-.79-.04-1.16-.02l-3.03.25c-.09-.09-.18-.17-.29-.23-.16-.09-.32-.11-.45-.25l.03-.04c.39-.15.95-.13,1.37-.16l2.46-.21c-.1-.09-3.61.01-4.08.03,0-.27.06-.52.12-.78.75-.1,1.55-.09,2.31-.11l3.88-.11-6.19-.21c-.03-.09,0-.17.04-.26.13-.03.27-.03.41-.03l.05-.06c-.14-.15-.57-.11-.79-.2-.14-.06-.22-.15-.27-.29-.07-.2-.02-.48.07-.66Z"/>
      <path class="cls-24" d="M26.6,4.15s.05-.02.1-.03c.09,0,.2.03.29.03.19,0,.73-.03.86.07l-.02.12c-.19.1-.99-.02-1.21-.07l-.02-.13Z"/>
      <path class="cls-3" d="M11.18,9.21l.18.2c.13.37.37.68.5,1.05.38,1.09.65,2.24.94,3.35l1.19,4.62,1.88,7.81,1.08,5.48,1.61,7.8.57,2.7,1.19,6.27.52,2.45c.05.22.12.65.26.82-.22.03-.5.31-.68.45l-.89.65-1.16-6.25-1.93-10.23-.93-4.92c-.02-.14-.14-.57-.12-.68.02-.08.19-.28.24-.37.36-.66.38-1.51.16-2.22-.22-.69-.5-1.2-1.17-1.54l-3.45-17.42Z"/>
      <path class="cls-12" d="M13.28,8.87l-.18-.85c.07-.06.29-.05.39-.06l1.5-.14,19.03-1.64,5.29-.43,3.56-.29,1.91,11.07c.55,3.2,5.46,32.45,5.25,32.8l-.32.05-7.79-42.96-28.63,2.46Z"/>
      <path class="cls-8" d="M13.04,31.82l2.09-.81,2.93,15.33,1.24,6.7c-.17.21-.52.4-.75.56l-1.28.93c-.24.17-.55.4-.84.45-.17.03-.34.02-.48-.08-.29-.2-.4-.6-.49-.93-.35-1.29-.54-2.68-.76-4l-.65-3.56-1.15-6.17-1.38-7.49c.48-.37.99-.66,1.52-.93Z"/>
      <path class="cls-20" d="M13.04,31.82l2.09-.81,2.93,15.33c-.13.16-.21.37-.31.56l-.94,2c-.25-.73-.36-1.54-.52-2.29l-.84-4.05-1.18-5.3-1.24-5.42Z"/>
      <path class="cls-13" d="M13.28,8.87l28.63-2.46,7.79,42.96-4.91.64-14.95,1.75-3.49.36c-1.03.12-2.09.3-3.12.32-.41,0-.86-.02-1.21-.26-.15-.1-.2-.26-.24-.42-.32-1.19-.47-2.45-.7-3.67l-1.74-9.35-6.06-29.86Z"/>
      <path class="cls-5" d="M24.17,26.49c.25-.01.48-.02.73.03.55.11,1.02.38,1.33.85-.67-.37-1.45-.51-2.21-.51-.76.12-1.37.33-2.07.66.67-.57,1.33-.89,2.21-1.03Z"/>
      <path class="cls-5" d="M39.07,38.02h.05c0,.06.01.12,0,.18-.07.62-.53,1.26-1.01,1.63-.74.56-1.66.67-2.55.56-.36-.04-.67-.13-1.01-.26l-.45-.23c.81.11,1.62.18,2.43.01,1.18-.24,1.9-.91,2.54-1.89Z"/>
      <path class="cls-3" d="M34.75,21.52c.58,1.43,1.5,2.79,2.97,3.42.63.27,1.26.29,1.93.16-.14.24-.5.47-.74.58-.45.21-.95.16-1.41-.02-1.09-.44-1.93-1.73-2.39-2.76-.15-.35-.51-1.03-.37-1.39Z"/>
      <path class="cls-3" d="M31.15,24.55s.07.13.07.17c.03.35-.23.93-.36,1.25-.28.72-.73,1.61-1.48,1.93-.5.22-1.02.17-1.52-.04-.31-.13-.99-.47-1.13-.79.75.21,1.45.28,2.19-.04,1.13-.48,1.77-1.39,2.22-2.49Z"/>
      <path class="cls-5" d="M36.07,8.91c.22-.03.49-.03.71.01h.06c.24.07.46.13.69.23,1.33.57,2.37,1.87,3,3.13.19.38.33.78.49,1.18l-1.25-1.22c-.5-.42-1.07-.81-1.66-1.08-1.36-.62-2.62-.46-3.98.04.08-.35.2-.67.37-.98.36-.65.84-1.11,1.57-1.32Z"/>
      <path class="cls-5" d="M25.12,9.96l.36-.02c1.2,0,1.9.73,2.7,1.52-.52-.08-1.14-.03-1.66.03-1.83.23-2.94,1.18-4.03,2.59-.47.66-.88,1.31-1.21,2.05-.03-1.43.28-2.82,1.05-4.04.67-1.06,1.56-1.86,2.79-2.14Z"/>
      <path class="cls-5" d="M34.75,21.52c-.2-.55-.35-1.11-.44-1.69-.23-1.49-.1-3.13.82-4.37.47-.63,1.14-1.1,1.94-1.22.89-.13,1.73.17,2.43.7,1.44,1.08,2.26,2.85,2.51,4.6.23,1.65.01,3.23-1.02,4.58l-.18.24c.88-.13,1.78-.08,2.53.48.19.14.34.31.49.49-1.12-.64-2.34-.77-3.59-.43-.2.05-.4.12-.58.2-.67.13-1.3.11-1.93-.16-1.47-.63-2.39-1.99-2.97-3.42Z"/>
      <path class="cls-25" d="M35.29,16.16l.02.06c.04.18-.07.45-.1.63-.04.2-.05.41-.05.62,0,.97.24,1.92.38,2.87.03.21.02.59.1.78.12.28.37.58.57.81.34.39.69.77,1.12,1.06.56.39,1.39.65,2.08.52.7-.13,1.39-.72,1.78-1.3.08-.12.14-.24.2-.37.04-.1.1-.18.16-.27-.06.59-.27,1.17-.54,1.68-.35.65-.82,1.16-1.54,1.37-.63.19-1.38-.04-1.94-.35-1.23-.68-2.12-2.2-2.5-3.51-.43-1.5-.52-3.21.26-4.6Z"/>
      <path class="cls-24" d="M35.29,16.16c.38-.65.89-1.2,1.64-1.4.69-.18,1.43.04,2.02.4,1.32.81,2.13,2.39,2.48,3.85.2.84.25,1.7.12,2.55-.07.08-.12.17-.16.27-.06.13-.12.25-.2.37-.39.58-1.08,1.17-1.78,1.3-.69.13-1.51-.13-2.08-.52-.42-.3-.78-.68-1.12-1.06-.2-.23-.45-.52-.57-.81-.08-.19-.07-.56-.1-.78-.14-.96-.39-1.9-.38-2.87,0-.21.01-.42.05-.62.03-.18.14-.45.1-.63l-.02-.06Z"/>
      <path class="cls-5" d="M36.84,18.71c.23-.02.41-.01.63.08.47.21.77.68.94,1.15.2.54.21,1.25-.05,1.77-.18.35-.38.54-.75.67-.21,0-.41-.02-.61-.11-.46-.2-.82-.64-1-1.11-.24-.62-.18-1.27.11-1.87.15-.32.42-.48.74-.6Z"/>
      <path class="cls-24" d="M36.55,19.15c.11-.02.21-.03.32.02.16.07.29.2.35.37.06.19.03.38-.06.55-.1.18-.23.24-.41.29-.12,0-.24,0-.35-.05-.13-.05-.27-.17-.32-.3-.05-.13-.04-.36.02-.5.09-.21.26-.31.46-.39Z"/>
      <path class="cls-5" d="M26.74,27.08c-.4-.21-.8-.4-1.16-.68-.7-.55-1.27-1.39-1.64-2.19-.84-1.77-1.1-4.04-.42-5.9.38-1.05,1.02-2.04,2.07-2.52.75-.35,1.66-.36,2.44-.07,1.27.47,2.22,1.63,2.78,2.83.84,1.81,1.05,4.1.34,5.99-.45,1.1-1.09,2.01-2.22,2.49-.74.32-1.44.24-2.19.04Z"/>
      <path class="cls-25" d="M31.05,22.76c0,.97-.52,2.17-1.12,2.92-.45.55-1.1.97-1.82,1.04-.79.08-1.58-.19-2.18-.7-1.4-1.19-2.12-2.94-2.26-4.76-.1-1.34.1-3.03,1.02-4.08v.03c-.02.21-.15.39-.22.58-.1.28-.18.58-.24.87-.41,1.94.16,4.18,1.39,5.72.56.7,1.33,1.28,2.23,1.43h.06c.08.02.04.02.13.02.08,0,.04,0,.1.02.14.05.45.02.6.01.14-.09.25-.04.36-.12h.08s.03-.01.03-.01c.05-.03.07-.03.12-.05l.12-.04.06-.02c.1-.03.19-.08.28-.13.12-.06.19-.16.31-.21.05-.06.06-.09.1-.16l.03-.04c.1-.13.2-.32.26-.48l.16-.41c.02-.07,0-.04.06-.09v-.07c.02-.07.04-.11.08-.16l-.02-.06.04-.06c.03-.06.04-.13.05-.2l.05-.23.02-.04c.03-.07.01-.12.03-.19l.02-.04c0-.17,0-.18.09-.31Z"/>
      <path class="cls-24" d="M24.69,17.18c.44-.58,1.1-1.02,1.82-1.13.82-.12,1.57.16,2.22.64,1.29.95,2.04,2.66,2.26,4.21.08.58.15,1.28.05,1.86-.1.14-.1.14-.09.31l-.02.04c-.02.07,0,.12-.03.19l-.02.04-.05.23c-.01.06-.02.14-.05.2l-.04.06.02.06c-.04.05-.06.09-.07.16v.07c-.06.05-.05.02-.07.09l-.16.41c-.06.16-.16.35-.26.48l-.03.04c-.03.07-.05.1-.1.16-.12.04-.19.15-.31.21-.09.05-.18.1-.28.13l-.06.02-.12.04c-.05.01-.08.02-.12.05l-.03.02h-.08c-.11.06-.22.02-.36.11-.15,0-.46.04-.6-.01-.06-.02-.02-.02-.1-.02-.09,0-.05,0-.13-.01h-.06c-.9-.16-1.67-.75-2.23-1.44-1.23-1.54-1.8-3.79-1.39-5.72.06-.29.15-.59.24-.87.07-.2.2-.38.22-.58v-.03Z"/>
      <path class="cls-5" d="M26.28,20.23c.26-.01.49.02.73.15.52.29.83.83.98,1.39.17.65.12,1.34-.23,1.92-.19.31-.46.44-.8.51-.32,0-.58-.03-.86-.2-.51-.32-.8-.94-.92-1.51-.12-.56-.06-1.22.26-1.71.21-.32.49-.48.86-.56Z"/>
      <path class="cls-24" d="M25.95,20.6c.1-.02.18-.03.28,0,.19.05.33.2.42.38.08.17.1.44.02.62-.1.24-.22.36-.46.46-.12,0-.31,0-.43-.04-.13-.05-.24-.17-.3-.3-.09-.19-.05-.49.03-.68.09-.22.22-.34.43-.44Z"/>
      <path class="cls-5" d="M41.59,25.94c.4-.02.74.03,1.11.22.55.29.77.84.95,1.4-.35-.31-.67-.62-1.07-.88-.09.23-.18.43-.34.62-.09.1-.08.45-.1.6l-.23,2c-.1.7-.25,1.4-.43,2.08-.58,2.18-1.64,4.45-3.68,5.62-1.62.94-3.74,1.06-5.53.58-3.26-.89-5.45-3.77-7.06-6.56l-.99-1.91c-.37.62-.56,1.25-.74,1.94-.14-.84-.04-1.52.33-2.28.23-.48.61-1.05,1.14-1.22.56-.17,1.08.04,1.58.29h-.74c-.68.06-.93.32-1.36.82.08.13.3.27.43.35.86.58,1.93.83,2.94,1,2.46.4,5.09.3,7.53-.18,2.54-.5,5.41-1.66,6.91-3.89-.28-.31-.84-.2-1.18-.33.11-.16.34-.2.52-.25Z"/>
      <path class="cls-12" d="M34.15,35.44h0c1.44-.09,2.89.53,3.95,1.48-.66.53-1.47.8-2.29.98-1.54.32-3.31.04-4.72-.62-.55-.26-1.03-.61-1.52-.98.16-.12.39-.21.58-.29.62-.26,1.24-.4,1.92-.39,1.37,0,2.3.82,3.22,1.74l-.06-.18c-.27-.83-.97-1.27-1.71-1.64l.62-.09Z"/>
      <path class="cls-21" d="M41.54,28.05l-.22,1.81v.09c-.06.16-.19.29-.3.41-.42.43-.92.81-1.42,1.15-3.26,2.17-7.5,2.3-11.23,1.54-.53-.11-1.07-.22-1.58-.39-.06-.02-.22-.06-.27-.09-.04-.04-.11-.16-.14-.21l-.37-.56-.81-1.37c.42.13.82.29,1.25.4.9.23,1.86.37,2.78.44,3.65.28,7.76-.17,10.92-2.13.5-.31.95-.68,1.39-1.06Z"/>
    </g>
    <g>
      <path class="cls-5" d="M97.22,29.32c-6.61,0-7.4.18-7.4,3.61v8.81c7.83-.12,9.97-2.32,9.97-7.77,0-.73,0-1.59-.12-2.45h.98v23.31h-33.83v-13.09c3.98,0,3.98-.18,3.98-3.61v-5.2c0-3.43,0-3.61-3.98-3.61v-13.03h30.4v13.03Z"/>
      <path class="cls-5" d="M120.83,15.06c0,3.79-3.18,5.2-9.36,5.2s-9.36-1.41-9.36-5.2,3.24-5.26,9.36-5.26,9.36,1.53,9.36,5.26ZM119.43,38.68c0,2.57.24,3.67,1.59,3.67v12.48h-18.9v-12.48c1.9,0,2.2-1.1,2.2-3.67v-1.1c0-2.81-.31-3.67-2.2-3.67v-12.42h17.31v17.19Z"/>
      <path class="cls-5" d="M121.81,26.26v-12.42h16.15l-.18,19.88h.61c.24-10.15,2.81-12.85,9.48-12.85,8.01,0,10.58,4.83,10.46,16.88.12,12.54-4.53,17.37-14.68,17.37-9.42,0-11.93-3.24-15.84-3.24-1.59,0-2.94,1.22-2.94,2.94h-.92v-24.9c0-2.81-.37-3.67-2.14-3.67ZM143.34,37.88c0-4.65-.43-5.51-2.32-5.51-1.35,0-2.08.79-2.08,2.69v5.57c0,2.02.43,2.94,2.08,2.94,1.77,0,2.32-1.04,2.32-5.69Z"/>
      <path class="cls-5" d="M186.65,36.35c-8.44,0-9.73.67-9.73,3.06v.49c0,1.71.98,2.45,6.42,2.45v12.48h-23.61v-12.48c1.84,0,2.2-1.1,2.2-3.67v-1.1c0-2.81-.37-3.67-2.2-3.67v-12.42h15.97v16.58h.67c.67-14.74,2.81-17.13,10.28-17.13v15.42Z"/>
      <path class="cls-5" d="M203.16,36.05h-15.35v-14.56h14.07v13.76h.67c.12-11.87,3.43-14.38,10.03-14.38s9.3,3.43,9.3,12.23v7.59c0,1.65.18,1.9.73,1.9.73,0,1.1-.24.98-5.02h.86c.12,2.26.18,4.28.18,5.99,0,8.44-1.22,11.87-8.32,11.87-7.46,0-8.87-4.59-8.87-14.07h-.73c-.12,10.28-2.88,14.07-10.46,14.07s-9.67-3.12-9.67-8.56c0-6.24,3.61-9.05,11.44-9.05s8.2-.31,8.2-2.14v-.8c0-1.1-.31-1.71-1.22-1.71-1.16,0-1.71,1.1-1.83,2.88ZM206.22,39.78v-2.2c-1.53,1.22-4.16,1.53-4.16,3.55,0,.86.55,1.41,1.65,1.41,1.41,0,2.51-.31,2.51-2.75Z"/>
      <path class="cls-5" d="M244.76,15.06c0,3.79-3.18,5.2-9.36,5.2s-9.36-1.41-9.36-5.2,3.24-5.26,9.36-5.26,9.36,1.53,9.36,5.26ZM243.35,38.68c0,2.57.24,3.67,1.59,3.67v12.48h-18.9v-12.48c1.9,0,2.2-1.1,2.2-3.67v-1.1c0-2.81-.31-3.67-2.2-3.67v-12.42h17.31v17.19Z"/>
      <path class="cls-5" d="M273.26,36.35c-8.44,0-9.73.67-9.73,3.06v.49c0,1.71.98,2.45,6.42,2.45v12.48h-23.61v-12.48c1.84,0,2.2-1.1,2.2-3.67v-1.1c0-2.81-.37-3.67-2.2-3.67v-12.42h15.97v16.58h.67c.67-14.74,2.81-17.13,10.28-17.13v15.42Z"/>
      <path class="cls-5" d="M293.38,15.06c0,3.79-3.18,5.2-9.36,5.2s-9.36-1.41-9.36-5.2,3.24-5.26,9.36-5.26,9.36,1.53,9.36,5.26ZM291.98,38.68c0,2.57.24,3.67,1.59,3.67v12.48h-18.9v-12.48c1.9,0,2.2-1.1,2.2-3.67v-1.1c0-2.81-.31-3.67-2.2-3.67v-12.42h17.31v17.19Z"/>
      <path class="cls-5" d="M313.38,55.44c-10.83,0-18.9-3.36-18.9-17.56,0-12.17,5.02-17.01,17.92-17.01s16.33,5.81,16.33,13.4c0,1.22,0,2.45-.06,3.79-4.77.12-11.87,0-18.54,0,.61,3.36,3.18,4.28,8.75,4.28,6.61,0,8.38-.98,8.26-3.06h1.53c0,11.07-3.55,16.15-15.29,16.15ZM310.02,37.21h4.83c-.06-4.71-.92-5.63-2.39-5.63-1.59,0-2.51,1.22-2.51,4.59,0,.37,0,.73.06,1.04Z"/>
      <path class="cls-5" d="M360.24,55.44c-10.83,0-18.9-3.36-18.9-17.56,0-12.17,5.02-17.01,17.92-17.01s16.33,5.81,16.33,13.4c0,1.22,0,2.45-.06,3.79-4.77.12-11.87,0-18.54,0,.61,3.36,3.18,4.28,8.75,4.28,6.61,0,8.38-.98,8.26-3.06h1.53c0,11.07-3.55,16.15-15.29,16.15ZM356.87,37.21h4.83c-.06-4.71-.92-5.63-2.39-5.63-1.59,0-2.51,1.22-2.51,4.59,0,.37,0,.73.06,1.04Z"/>
      <path class="cls-5" d="M395.59,54.83h-18.84v-12.48c1.83,0,2.2-1.1,2.2-3.67v-.98c0-2.88-.37-3.79-2.2-3.79v-12.42h15.97v13.27h.67c.06-12.05,3.06-13.89,10.22-13.89s9.67,3.43,9.67,11.5v6.3c0,2.57.24,3.67,1.59,3.67v12.48h-18.23v-12.48c1.35,0,1.59-1.1,1.59-3.67v-2.02c0-2.51-.55-3.12-2.14-3.12-1.28,0-2.14.67-2.14,2.69v2.45c0,2.57.31,3.67,1.65,3.67v12.48Z"/>
      <path class="cls-5" d="M445.2,38.68c0,2.57.31,3.67,1.96,3.67v12.48h-19.21v-12.48c1.9,0,2.2-1.1,2.2-3.67v-8.75c0-2.81-.31-3.67-2.14-3.67v-12.42h17.19v24.84Z"/>
      <path class="cls-5" d="M467.22,15.06c0,3.79-3.18,5.2-9.36,5.2s-9.36-1.41-9.36-5.2,3.24-5.26,9.36-5.26,9.36,1.53,9.36,5.26ZM465.81,38.68c0,2.57.25,3.67,1.59,3.67v12.48h-18.9v-12.48c1.9,0,2.2-1.1,2.2-3.67v-1.1c0-2.81-.31-3.67-2.2-3.67v-12.42h17.31v17.19Z"/>
      <path class="cls-5" d="M502.2,62.66h-26.43c-4.04,0-7.59-1.59-7.59-8.32,0-4.53,3.12-7.89,8.26-7.83,2.75.06,4.59.06,7.4.12v-.67c-10.95,0-15.17-3.3-15.17-11.93,0-9.54,4.59-13.09,17.25-13.09h1.77c1.71,0,2.94-1.59,2.45-7.1h13.21c.86,6.12-2.45,7.89-6.79,7.89-2.33,0-4.71-.18-8.26-.18v.55c11.99.43,14.87,4.4,14.87,11.93.12,9.6-4.59,13.15-17.25,13.15-6.06,0-6.85.43-6.85,1.28,0,.55.43.79,1.29.79h21.84v13.4ZM485.93,30.05c-1.65,0-2.2.43-2.2,4.1,0,4.1.55,4.71,2.2,4.71s2.2-.61,2.2-4.71c0-3.67-.55-4.1-2.2-4.1Z"/>
      <path class="cls-5" d="M523.49,54.83h-18.84v-12.48c1.83,0,2.2-1.1,2.2-3.67v-.98c0-2.88-.37-3.79-2.2-3.79v-12.42h15.97v13.27h.67c.06-12.05,3.06-13.89,10.22-13.89s9.67,3.43,9.67,11.5v6.3c0,2.57.25,3.67,1.59,3.67v12.48h-18.23v-12.48c1.35,0,1.59-1.1,1.59-3.67v-2.02c0-2.51-.55-3.12-2.14-3.12-1.28,0-2.14.67-2.14,2.69v2.45c0,2.57.31,3.67,1.65,3.67v12.48Z"/>
      <path class="cls-5" d="M562.45,55.44c-10.83,0-18.9-3.36-18.9-17.56,0-12.17,5.02-17.01,17.92-17.01s16.33,5.81,16.33,13.4c0,1.22,0,2.45-.06,3.79-4.77.12-11.87,0-18.54,0,.61,3.36,3.18,4.28,8.75,4.28,6.61,0,8.38-.98,8.26-3.06h1.53c0,11.07-3.55,16.15-15.29,16.15ZM559.09,37.21h4.83c-.06-4.71-.92-5.63-2.39-5.63-1.59,0-2.51,1.22-2.51,4.59,0,.37,0,.73.06,1.04Z"/>
    </g>
  </g>
</svg>